<?xml version="1.0" encoding="utf-8"?>
<!-- Generator: Adobe Illustrator 25.2.1, SVG Export Plug-In . SVG Version: 6.00 Build 0)  -->
<svg version="1.1" xmlns="http://www.w3.org/2000/svg" xmlns:xlink="http://www.w3.org/1999/xlink" x="0px" y="0px"
	 viewBox="0 0 390.9 327.5" style="enable-background:new 0 0 390.9 327.5;" xml:space="preserve">
<style type="text/css">
	.st0{fill:#CAAEA3;}
	.st1{fill:#211B26;}
	.st2{fill:none;}
	.st3{display:none;}
	.st4{display:inline;fill:none;}
</style>
<g id="Calque_1">
	<ellipse class="st0" cx="72.2" cy="70.1" rx="66.9" ry="66.5"/>
	<path class="st0" d="M181.8,210.3c-18-16.6-27.7-42.2-31.4-54.2c-5.6-1-11.3-1.6-17.3-1.6c-48.9,0-88.5,37-88.5,82.7
		c0,45.7,39.6,82.7,88.5,82.7c48.9,0,88.5-37,88.5-82.7c0-1.2,0-2.4-0.1-3.5C213.1,231.2,197.9,225.1,181.8,210.3z"/>
	<g id="Calque_1_1_">
		<path class="st1" d="M89.8,85.1c12.1,6,27.8,0.9,31.2-10.6c4-13.5,1.8-26.3-7.2-38.1c-0.9-1.2-1.9-2.3-2.9-3.2
			c-1.1-0.9-2.3-1.8-3.5-2.6c-5.7-5.1-12.3-8.7-20.9-8.7c-7,0-12.1,3.1-16.4,7.3C64,35,62.5,41.9,63.5,49.4
			c1.2,8.7,5.8,16.2,11.4,23.3C78.8,77.8,83.9,82.1,89.8,85.1z M87.1,75.6l-0.6-0.3c0.1-0.6,0.2-1.1,0.2-1.7L85,74l-0.3-0.6
			c2.2-1,4.4-6.5,6.5-7.5l0.5,0.5C90.2,68,88.6,74,87.1,75.6z M95.4,63.4c1,0.8-2.3,10.1-5.4,13.1C89.2,73.6,94.2,65.2,95.4,63.4z
			 M82.2,73c-1.2-1-0.4-5.1,0.8-5.6c1.3-0.5,2.5-1.2,3.7-2c1.3-0.7,2.6-1.5,3.7-2.5c0.2,0,2.3-2,2.5-2c-0.5,1.2-1.1,2.2-1.8,3.3
			C89.2,66.8,85.6,72.3,82.2,73z M96.4,71.6h0.3c0.6-0.9,1.4-5.6,2.2-6.7c1.7,2.3-0.3,12.5-0.4,14.7l-6.3-2.4
			c1.6-1.4,3.1-7.1,4.8-8.6C96.6,69.9,96.5,70.8,96.4,71.6L96.4,71.6z M95.4,79.2L90.6,82l-0.3-0.2l1.9-3.7L95.4,79.2z M77.5,58.6
			l-4.6,1c-1.8-2.9,2.3-3.9,2.4-6.2L82,52c0.1,0.2,0.2,0.4,0.2,0.6l-6.4,2.5l0.2,0.3c2.8-0.8,6-1.8,9.5-1.6c1.8,4.1-2.1,1.9-4.3,6.8
			l2.9-0.5l-1.7,2.1l0.2,0.2c1.7-0.9,2.8-3.4,6.5-2.3c0,1.2,0.7,2.6,0,2.7c-3.6,0.6-4,2-5.9,3.6c0-1.1,0-1.6,0-2.2l-3.7,1.7
			l-0.3-0.4c0.2-0.7,0.4-1.3,0.7-2l-1.4-0.3l1.3-1.1c-1.2,0.2-2.5,0.6-3.7,1c-0.6,0.1-1.3,0.2-1.9,0.1c0.2-0.5,0.2-1.1,0.6-1.5
			c0.9-1,2-1.8,3.1-2.7L77.5,58.6z M72.2,51.4c3.7-3.1,9.1-1.8,13.2-3.1c0.3,2.6-0.8,2.3-3.4,2.6c-2.9,0.4-5.7,2.2-8.9,1.1l1.6,1.6
			c-2.8,0.6-3.3,1.9-4.9,2.8L69.3,56c0.8-0.5,0-1.1,1-1.8C69.2,53.1,70.8,52.6,72.2,51.4z M78.2,43.8l2.8,0.7V45l-4,0.2
			c0.1-1.1,0.2-2.2,0.2-3.6c3.1,1,6.8,2.5,9.6,3.4l-0.2,0.5c-2.4-0.5-5.8-1.6-8.2-2.1L78.2,43.8z M85.5,47.6
			c-2.2,0.4-5.2,0.1-7.3,0.5C79.1,46,82.2,46.3,85.5,47.6z M74.3,49.3c-0.8-1.3-1-2.4,0.2-3.5C76.4,47.1,76.4,47.7,74.3,49.3z
			 M76.5,41.2c-0.2,1.1-0.4,2.2-0.6,3.2c-1.1,0-2.3,0-3.4,0.1c-1,0.2-1.3,1.7-2.8,1.1C70.8,42.2,72.3,41.2,76.5,41.2z M79,35.8
			c-1,3-1.6,3.4-2.8,3.2c-0.9-0.1-2.6,0.9-3.4,0.6l0.3-0.5c0.7,0.2,2.3-2.2,3.3-1.9c-0.7-0.9-2.2,0.9-2.8,0.1
			C76.5,32.5,77.5,36,79,35.8z M88.2,43.3c-5.4-2.4-7.3-2.8-10.4-3.2c0.5-0.8,1.4-2.6,2-3.7C82.9,36.8,85.5,39.8,88.2,43.3z
			 M85.4,38.8c0.6-1,1.2-1.1,1.8-2.1c2.1,1.7,2.6,4.4,1.3,3.6C87.6,39.8,86.5,39.8,85.4,38.8z M84.3,33.7c0.1,0,1.1,4,0.8,3.8
			c-1.6-0.8-3.9-1.7-5.2-2.8c-0.8-0.7-1.4-1.4-2.1-2.1l0.4-0.7C80.2,32.5,82.2,33,84.3,33.7z M85.2,27.6c2.2,3.4,4.2,6.8,6.3,10.1
			c0.2,0.3-0.1,0.8-0.2,1.2h-0.6c-2.6-3.8-6.1-6.9-10.2-8.9c1.9-0.5,3.1,0.9,5.1,1L82,28.4L85.2,27.6z M93.2,37.8l-5.7-9.1l0.3-0.1
			l2.3,2.4c0.5-2.7-1.1-4.2-3.4-5.6C91.5,25,96.2,34.4,93.2,37.8L93.2,37.8z M95.7,33.4c2.8,1.3,1.7,4,1.3,6.1
			C94.9,38.8,94.5,35.4,95.7,33.4L95.7,33.4z M97.9,28.4c2.8,3.1,1.4,6.7,2,10.4c1-1.4,1.8-2.6,2.7-3.9c0.9,3-0.3,5.5-2.9,7.3
			c-0.2-0.7-0.5-1.4-0.8-2.2c-0.1-0.3-0.5-0.7-0.5-1C98.2,35.4,98.1,31.9,97.9,28.4L97.9,28.4z M101.9,29.7l1.5,2.5
			c0,0-1.4,2-2.5,2.2S101.9,29.7,101.9,29.7L101.9,29.7z M111.8,39.9c0,0-5.1,5.5-7.1,4.4s-2.2-1.8-2.2-1.8s3.1-4.4,2.4-5.8
			s0.6-3.4,0.6-3.4l3.5,2.9c0,0-0.9,3-2.1,4c1.3-0.7,4-2.3,3.7-3.2L111.8,39.9z M114.4,42.9l-3.7,2.5c-1-1.8-0.7-2.6,1.1-3.5
			C113.1,41.2,113.6,42,114.4,42.9L114.4,42.9z M117.8,54.7c-4.6-1.3-3.2-4.5-7.9-3.5c1.3-0.8-2.2-3.5-0.8-4.1
			c0.7-0.3,1.4,2,1.8,1.4c4.2-6.5,5.3-5,5.5,1c-1.9,0.9-0.3,0.9-1.9,1.7c0.1,0.2,2.3,0.1,0.5,0.7c1.4,0-0.6,0.8,0.8,0.7
			C117.8,52.6,118,52.8,117.8,54.7L117.8,54.7z M109.8,57c0.1-1.1,1.9-1.5,1.9-2.3c4.7,0.3,6,2,5.3,4.3
			C115.6,59,111.5,57.1,109.8,57z M111.4,61.2l0.4-2c0,0,1.8,2.6,2.8,2.8c0.7,0.1,1.4,0.1,2-0.2l-0.3,3.1c-0.5,0.6-1.5,0.7-2.2,0.2
			C113,64,112.1,62.7,111.4,61.2L111.4,61.2z M113.5,76.8c-0.7-1-4.2-7.3-5.4-9c-0.1-0.2,1.4-2.3,1.5-2.6c0.3,0.1-0.1-2.9,0.2-2.9
			c1.3,0,1.5,2,3.7,6.6c0.2,0.4,2,7,2,7.4C115.3,76.5,113.8,76.9,113.5,76.8L113.5,76.8z M104.9,67.4l2.8,2.6
			c0.7,0.3,1.2,0.8,1.6,1.5c0.6,1.2,2.3,7.7,2.3,7.7s-0.2,1.6-1.2,2c-0.4,0.2-0.9,0.3-1.4,0.3c0,0-0.8-8.2-1.7-9.2
			c-0.9-1.2-1.7-2.5-2.3-3.9 M103.9,80.1l-0.1-8.7l-1.2-4.3l2.7,5.3l0.8,7l-0.4,1.5l-0.9-8.1c0,0,0.3,7.5-0.5,8.2
			S103.9,80.1,103.9,80.1L103.9,80.1z M98.8,82c1-0.9,1.8-14,2.3-13.5c1.7,1.9,1.1,11.2,1.9,12.4C101.8,83.4,100.8,82.3,98.8,82z
			 M93.3,84.9c1.4-3.8,2.9-5,4.8-4.2L93.3,84.9z"/>
		<path class="st2" d="M201.1,244.8l7.3-1.5c-0.2-1-0.4-1.9-0.6-2.7c-0.5-1.3-1.3-2.4-2.4-3.2c-0.8-0.6-1.7-1.1-2.7-1.5l-0.6-0.3
			c-2.1-0.6-4.3-0.1-5.9,1.3c-3.8,3.7-8.3,6.1-13,8.3c-6.9,3.2-5,3.4-10.7-1.4c-2.9-2.8-7.1-3.8-11-2.8c-4.1,0.9-8.3,1.7-12.4,2.4
			c-1.7,0.3-3.4,0.3-4.2-1.4c2.6-0.4,5.1-0.7,7.6-1.3s4.9-1.5,7.4-2.1c5.1-1.3,9.8-1.2,14.1,2.6c1.6,1.2,3.6,1.9,5.6,1.7
			c3.9-0.3,7.6-1.5,10.5-4.5c2.4-2.5,4.6-4.6,7.7-5.3c0,0-2.7-1.6-2.7-1.7c-2,1.2-3.9,2.5-5.9,3.6c-2.6,1.5-5.4,2.8-8.2,3.8
			c-4.1,1.3-7-0.7-7.9-4.9c-0.2-0.8-0.3-1.5-0.4-2.3c-0.6-3.9-1.2-7.7-1.9-11.6c-0.3-1.8-1.2-3.4-3.3-3.4c-6.4,0-10.4,1.9-11,7.9
			c0,0.2-0.2,0.5-0.6,1.2c-1.4-8.7,5.7-9.9,10.6-13.1l-14.3-6.5c7.4,0.2,14.4,3.5,19.3,9.1c0.9,1.2,1.5,2.5,1.8,4
			c0.9,4.4,1.5,8.8,2.4,13.1c0.6,3,3.2,4.9,5.6,3.7c4.1-2,8.2-4.3,12.4-6.7c-2.9-2-5.8-4.1-8.5-6.3c-0.1,0.2-0.2,0.4-0.3,0.6l0,0
			v0.1l0,0l0,0c-1.8,3.5-2.9,4-5.1,2.6c0.2-0.2,0.4-0.5,0.6-0.7c1.1-1,1.9-2.2,2.6-3.5l0,0l-4.6-7.1c-3.7-2.4-6.3-5.9-8.9-9.2
			c-2.2-2.8-4.5-5.6-6.8-8.4c-0.5-0.9-1.6-1.4-2.6-1.2L160,196c-0.4,0.1-0.8,0.3-1.1,0.6c-1.8,1.3-3.5,2.8-5.4,4.2
			c-0.9,0.6-1.9,1.1-2.8,1.7l-0.4-0.6l6.5-7.2l-5.2-2.4c-3,2.8-4.2,7-8,8.7l-0.6-0.5l6.6-9.2l-6.3-3.4l0.2-0.5l11.6,4.2
			c1,0,0.3-3.5-0.9-5.4c-1.4-2.7-2.8-5.5-4-8.4c-1.1-2.8-0.6-3.2-1.8-4.4c-0.4-0.4-0.9-0.8-1.3-1.3c-1.3-1.6-3-0.5-4.5,0.2
			c-0.8,0.3-1.6,0.6-2.4,0.9c-4.6,1.3-7.8,5.6-7.6,10.5c0.1,1.5,0.1,3.1,0.1,4.6c0,1.9-0.2,3.8-0.3,5.7h-0.6
			c-0.5-6.6-3.7-13.3,1.6-19.4c-4.9-3.7-11.5-4.1-16.8-0.9c-1.6,1.2-3.2,2.5-4.7,3.8c-4.6,4.2-10.8,6.3-17,6c0.3-0.3,0.6-0.5,1-0.6
			c6.6-1.1,11.7-4.6,16.7-9.1c4.8-4.4,11-7.1,18-3.8c5.4,2.6,10,1,15.1-2.4c-2.1,0.1-3.8-0.1-5.2,0.4c-3.6,1.2-6.7,0.4-9.8-1.4
			c-1-0.6-2.1-1.1-3.2-1.3c-2.8-0.6-3.4-1.2-3.6-4.4c11.9,6.5,15,6.6,20.2,0.1c-0.8-0.5-1.5-1.4-2.3-1.5c-6.7-1-13.3-2.8-20.2-1.7
			c-3.8,0.6-7.6,0.8-11.3,1.6c-1.7,0.4-3.2,1.4-4.3,2.8c-1.1,1.8-1.9,3.7-2.3,5.8c-1.4,4.7-5.6,7.8-10.2,7c2.1-1.4,4.1-2.7,5.9-4
			c0.4-0.3,0.5-0.9,0.8-1.4c-0.5-0.1-1-0.1-1.4-0.1c-1.6,0.5-3.2,1.1-4.8,1.7l-0.3-0.6c1.8-1.1,3.6-2.3,5.5-3.2
			c2.4-1.1,2.6-3.4,3.4-5.7c-8.8,2.7-16.8,7.2-23.7,13.4l6.1,4.4l-0.4,0.9l-3-0.9l0.9,4.6l-0.6,0.2l-5-7.4
			c-7.1,6.3-12.8,13.9-17,22.4c-4.5,9.1-6.4,18.7-6.7,28.9c-0.3,12.1,1.2,23.8,6,35c6.2,14.4,16.9,25.1,28.5,35.2
			c6.3,5.5,14.1,8,21.8,10.6c4.4,1.4,9,2.4,13.6,3c3.7,0.5,11.3,1,15.3,1c0.2-0.5-0.2-3.5-3.1-3c-4-0.3-4.2-2.6-6.3-4
			c2.3,0.5,4.5,2.4,6.8,1.6c0-0.9,0.2-1.3-1.9-3.8c1.5,1.1,5.2,3,6.1,4.3c2.3,3.2,2.9,4.5,6.6,3.6c4.3-1,8.1-3,12.5-4
			c2.7-0.6,5.5-1.3,8.5-2.1l-4.5-4.1c-1.1,0.6-2.1,1.2-3.1,1.8c-4.3,2.2-5.3,2-8.2-1.9c-0.2-0.2-0.4-0.5-0.5-0.8
			c-1.7-3.4-4.4-3.8-7.9-3.2c-3,0.4-6,0.6-9.1,0.4c-1.4-0.1-2.7-1-4.1-1.5l0.2-0.8h10.2L139,289l0.7-0.2c0.6,1.4,1.3,2.7,1.8,4.1
			c0.4,1.5,1.9,2.5,3.4,2.4c1.6-0.1,3.1,0,4.6,0.5c0.3,0.1,0.5,0.2,0.8,0.2c3.8,1.3,4.2,3.5,4.2,3.5l0,0c-0.1,0.8,0.5,1.5,1.3,1.5
			c0.3,0,0.5,0,0.7-0.1c0.8-0.3,1.6-0.7,2.3-1.1l0,0c7.4-5.4,9.8-0.9,9.8-0.9l0,0c0.4,1,1.1,1.9,1.9,2.5c1.7,1.5,3.4,1.1,4.9,0
			c6-4.5,12-9,18.1-13.6c-0.9-1.9-2.6-3.4-4.7-4.1c-1.8-0.5-4.6,1-4.6,1s-6,2-6.9,1.1s-5.4,0.3-6.6,0.9s-4.5,1.6-5.2,1.9
			s-2.9-0.4-4.5-1.6c-0.9-0.7-2.2-0.8-3.2-0.3c-0.4,0.5-0.8,1.1-1,1.7c-0.3,0.9-4.6,0.8-4.6,0.8s3.4-1.9,4-3.9s4.9-0.7,7.6-0.3
			s3.5-0.9,4.5-2.6c0.5-1.1,0.3-2.5-0.5-3.4c0,0-4.4-2.2-6.4-2.8c-1.4-0.3-2.9-0.1-4.2,0.5c-1.4,0.6-2.8,1-4.3,1.4
			c-1.5,0.2-3-0.2-4.3-1l3.6-1.3c2.5,1,5.5-3.9,12.9-2.3s8.5,6.7,8.5,6.7l1.6-2.7l-0.6-3.2c-1.8-0.8-3.6-1.3-5.5-1.8
			c-2.6-0.5-3.2-3.9-3.2-3.9l-0.7-2l3,1.5c0.4,4.4,5.8,1.2,9.3,4.3s-0.5,9.5-0.5,9.5c7-2.1,13.4-3.2,18.6,3c0.5-1.7,1.2-3.3,2-4.9
			c0.9-1.4,2.4-2.4,3.2-3.8c1.2-2.2,2.1-4.6,3.2-7.1c-6.3-4.2-13.1-5-20.4-3.9c-1.6-4.9-5.1-7.9-9.7-9.7c-2-0.8-4-1.4-5.9-2.2
			c-1.4-0.6-2.8-1.1-4.2-1.7l0.3-0.8c4.6,1.2,9.2,2.2,13.7,3.7c1.9,0.8,3.6,2,4.9,3.6c4.2,4.8,9.3,6.3,16.2,3.9
			c-1.4-2.1-2.5-4.3-4.2-5.8s-4.2-2.2-6.8-3.4l5-0.8c1.8-0.3,2.8-1.3,2.6-3.2s-0.5-3.6-0.7-5.2l3.7,3c-1.8,2.3-2.1,5.5-0.8,8.2
			c1.1,2.4,1.9,4.9,2.9,7.3c0.1,0.3,0.4,0.6,0.7,0.8c1.6,0.8,3.3,1.5,5.2,2.4c0.8-6.7,1.6-13,2.4-19.8h-8L201.1,244.8z"/>
		<path class="st2" d="M77,293.7c-10.8-9.5-19.3-20.5-24-34.3c-1.5-4.4-2.6-8.8-4-13.5c-0.4,0.2-0.8,0.5-1.2,0.8
			c3.7,25.1,18.2,47.3,39.8,60.7c0.3,0.1,0.5,0.1,0.8,0.2c2.6,1.1,2.7,0.2,3.9,0.6c-1.7-1.7-3.2-3.7-4.9-5.3
			C84,299.7,80.5,296.7,77,293.7z"/>
		<path class="st2" d="M376.7,164.3c-1.7,20.5,6.4-39.4,6.4-39.4s-8.5-34.7-12.6-44.6C370.5,80.3,380.1,122.3,376.7,164.3z"/>
		<path class="st2" d="M201.1,244.8l7.3-1.5c-0.2-1-0.4-1.9-0.6-2.7c-0.5-1.3-1.3-2.4-2.4-3.2c-0.8-0.6-1.7-1.1-2.7-1.5l-0.6-0.3
			c-2.1-0.6-4.3-0.1-5.9,1.3c-3.8,3.7-8.3,6.1-13,8.3c-6.9,3.2-5,3.4-10.7-1.4c-2.9-2.8-7.1-3.8-11-2.8c-4.1,0.9-8.3,1.7-12.4,2.4
			c-1.7,0.3-3.4,0.3-4.2-1.4c2.6-0.4,5.1-0.7,7.6-1.3s4.9-1.5,7.4-2.1c5.1-1.3,9.8-1.2,14.1,2.6c1.6,1.2,3.6,1.9,5.6,1.7
			c3.9-0.3,7.6-1.5,10.5-4.5c2.4-2.5,4.6-4.6,7.7-5.3c0,0-2.7-1.6-2.7-1.7c-2,1.2-3.9,2.5-5.9,3.6c-2.6,1.5-5.4,2.8-8.2,3.8
			c-4.1,1.3-7-0.7-7.9-4.9c-0.2-0.8-0.3-1.5-0.4-2.3c-0.6-3.9-1.2-7.7-1.9-11.6c-0.3-1.8-1.2-3.4-3.3-3.4c-6.4,0-10.4,1.9-11,7.9
			c0,0.2-0.2,0.5-0.6,1.2c-1.4-8.7,5.7-9.9,10.6-13.1l-14.3-6.5c7.4,0.2,14.4,3.5,19.3,9.1c0.9,1.2,1.5,2.5,1.8,4
			c0.9,4.4,1.5,8.8,2.4,13.1c0.6,3,3.2,4.9,5.6,3.7c4.1-2,8.2-4.3,12.4-6.7c-2.9-2-5.8-4.1-8.5-6.3c-0.1,0.2-0.2,0.4-0.3,0.6l0,0
			v0.1l0,0l0,0c-1.8,3.5-2.9,4-5.1,2.6c0.2-0.2,0.4-0.5,0.6-0.7c1.1-1,1.9-2.2,2.6-3.5l0,0l-4.6-7.1c-3.7-2.4-6.3-5.9-8.9-9.2
			c-2.2-2.8-4.5-5.6-6.8-8.4c-0.5-0.9-1.6-1.4-2.6-1.2L160,196c-0.4,0.1-0.8,0.3-1.1,0.6c-1.8,1.3-3.5,2.8-5.4,4.2
			c-0.9,0.6-1.9,1.1-2.8,1.7l-0.4-0.6l6.5-7.2l-5.2-2.4c-3,2.8-4.2,7-8,8.7l-0.6-0.5l6.6-9.2l-6.3-3.4l0.2-0.5l11.6,4.2
			c1,0,0.3-3.5-0.9-5.4c-1.4-2.7-2.8-5.5-4-8.4c-1.1-2.8-0.6-3.2-1.8-4.4c-0.4-0.4-0.9-0.8-1.3-1.3c-1.3-1.6-3-0.5-4.5,0.2
			c-0.8,0.3-1.6,0.6-2.4,0.9c-4.6,1.3-7.8,5.6-7.6,10.5c0.1,1.5,0.1,3.1,0.1,4.6c0,1.9-0.2,3.8-0.3,5.7h-0.6
			c-0.5-6.6-3.7-13.3,1.6-19.4c-4.9-3.7-11.5-4.1-16.8-0.9c-1.6,1.2-3.2,2.5-4.7,3.8c-4.6,4.2-10.8,6.3-17,6c0.3-0.3,0.6-0.5,1-0.6
			c6.6-1.1,11.7-4.6,16.7-9.1c4.8-4.4,11-7.1,18-3.8c5.4,2.6,10,1,15.1-2.4c-2.1,0.1-3.8-0.1-5.2,0.4c-3.6,1.2-6.7,0.4-9.8-1.4
			c-1-0.6-2.1-1.1-3.2-1.3c-2.8-0.6-3.4-1.2-3.6-4.4c11.9,6.5,15,6.6,20.2,0.1c-0.8-0.5-1.5-1.4-2.3-1.5c-6.7-1-13.3-2.8-20.2-1.7
			c-3.8,0.6-7.6,0.8-11.3,1.6c-1.7,0.4-3.2,1.4-4.3,2.8c-1.1,1.8-1.9,3.7-2.3,5.8c-1.4,4.7-5.6,7.8-10.2,7c2.1-1.4,4.1-2.7,5.9-4
			c0.4-0.3,0.5-0.9,0.8-1.4c-0.5-0.1-1-0.1-1.4-0.1c-1.6,0.5-3.2,1.1-4.8,1.7l-0.3-0.6c1.8-1.1,3.6-2.3,5.5-3.2
			c2.4-1.1,2.6-3.4,3.4-5.7c-8.8,2.7-16.8,7.2-23.7,13.4l6.1,4.4l-0.4,0.9l-3-0.9l0.9,4.6l-0.6,0.2l-5-7.4
			c-7.1,6.3-12.8,13.9-17,22.4c-4.5,9.1-6.4,18.7-6.7,28.9c-0.3,12.1,1.2,23.8,6,35c6.2,14.4,16.9,25.1,28.5,35.2
			c6.3,5.5,14.1,8,21.8,10.6c4.4,1.4,9,2.4,13.6,3c3.7,0.5,11.3,1,15.3,1c0.2-0.5-0.2-3.5-3.1-3c-4-0.3-4.2-2.6-6.3-4
			c2.3,0.5,4.5,2.4,6.8,1.6c0-0.9,0.2-1.3-1.9-3.8c1.5,1.1,5.2,3,6.1,4.3c2.3,3.2,2.9,4.5,6.6,3.6c4.3-1,8.1-3,12.5-4
			c2.7-0.6,5.5-1.3,8.5-2.1l-4.5-4.1c-1.1,0.6-2.1,1.2-3.1,1.8c-4.3,2.2-5.3,2-8.2-1.9c-0.2-0.2-0.4-0.5-0.5-0.8
			c-1.7-3.4-4.4-3.8-7.9-3.2c-3,0.4-6,0.6-9.1,0.4c-1.4-0.1-2.7-1-4.1-1.5l0.2-0.8h10.2L139,289l0.7-0.2c0.6,1.4,1.3,2.7,1.8,4.1
			c0.4,1.5,1.9,2.5,3.4,2.4c1.6-0.1,3.1,0,4.6,0.5c0.3,0.1,0.5,0.2,0.8,0.2c3.8,1.3,4.2,3.5,4.2,3.5l0,0c-0.1,0.8,0.5,1.5,1.3,1.5
			c0.3,0,0.5,0,0.7-0.1c0.8-0.3,1.6-0.7,2.3-1.1l0,0c7.4-5.4,9.8-0.9,9.8-0.9l0,0c0.4,1,1.1,1.9,1.9,2.5c1.7,1.5,3.4,1.1,4.9,0
			c6-4.5,12-9,18.1-13.6c-0.9-1.9-2.6-3.4-4.7-4.1c-1.8-0.5-4.6,1-4.6,1s-6,2-6.9,1.1s-5.4,0.3-6.6,0.9s-4.5,1.6-5.2,1.9
			s-2.9-0.4-4.5-1.6c-0.9-0.7-2.2-0.8-3.2-0.3c-0.4,0.5-0.8,1.1-1,1.7c-0.3,0.9-4.6,0.8-4.6,0.8s3.4-1.9,4-3.9s4.9-0.7,7.6-0.3
			s3.5-0.9,4.5-2.6c0.5-1.1,0.3-2.5-0.5-3.4c0,0-4.4-2.2-6.4-2.8c-1.4-0.3-2.9-0.1-4.2,0.5c-1.4,0.6-2.8,1-4.3,1.4
			c-1.5,0.2-3-0.2-4.3-1l3.6-1.3c2.5,1,5.5-3.9,12.9-2.3s8.5,6.7,8.5,6.7l1.6-2.7l-0.6-3.2c-1.8-0.8-3.6-1.3-5.5-1.8
			c-2.6-0.5-3.2-3.9-3.2-3.9l-0.7-2l3,1.5c0.4,4.4,5.8,1.2,9.3,4.3s-0.5,9.5-0.5,9.5c7-2.1,13.4-3.2,18.6,3c0.5-1.7,1.2-3.3,2-4.9
			c0.9-1.4,2.4-2.4,3.2-3.8c1.2-2.2,2.1-4.6,3.2-7.1c-6.3-4.2-13.1-5-20.4-3.9c-1.6-4.9-5.1-7.9-9.7-9.7c-2-0.8-4-1.4-5.9-2.2
			c-1.4-0.6-2.8-1.1-4.2-1.7l0.3-0.8c4.6,1.2,9.2,2.2,13.7,3.7c1.9,0.8,3.6,2,4.9,3.6c4.2,4.8,9.3,6.3,16.2,3.9
			c-1.4-2.1-2.5-4.3-4.2-5.8s-4.2-2.2-6.8-3.4l5-0.8c1.8-0.3,2.8-1.3,2.6-3.2s-0.5-3.6-0.7-5.2l3.7,3c-1.8,2.3-2.1,5.5-0.8,8.2
			c1.1,2.4,1.9,4.9,2.9,7.3c0.1,0.3,0.4,0.6,0.7,0.8c1.6,0.8,3.3,1.5,5.2,2.4c0.8-6.7,1.6-13,2.4-19.8h-8L201.1,244.8z"/>
		<path class="st2" d="M376.7,164.3c-1.7,20.5,6.4-39.4,6.4-39.4s-8.5-34.7-12.6-44.6C370.5,80.3,380.1,122.3,376.7,164.3z"/>
		<path class="st2" d="M77,293.7c-10.8-9.5-19.3-20.5-24-34.3c-1.5-4.4-2.6-8.8-4-13.5c-0.4,0.2-0.8,0.5-1.2,0.8
			c3.7,25.1,18.2,47.3,39.8,60.7c0.3,0.1,0.5,0.1,0.8,0.2c2.6,1.1,2.7,0.2,3.9,0.6c-1.7-1.7-3.2-3.7-4.9-5.3
			C84,299.7,80.5,296.7,77,293.7z"/>
		<path class="st2" d="M201.1,244.8l7.3-1.5c-0.2-1-0.4-1.9-0.6-2.7c-0.5-1.3-1.3-2.4-2.4-3.2c-0.8-0.6-1.7-1.1-2.7-1.5l-0.6-0.3
			c-2.1-0.6-4.3-0.1-5.9,1.3c-3.8,3.7-8.3,6.1-13,8.3c-6.9,3.2-5,3.4-10.7-1.4c-2.9-2.8-7.1-3.8-11-2.8c-4.1,0.9-8.3,1.7-12.4,2.4
			c-1.7,0.3-3.4,0.3-4.2-1.4c2.6-0.4,5.1-0.7,7.6-1.3s4.9-1.5,7.4-2.1c5.1-1.3,9.8-1.2,14.1,2.6c1.6,1.2,3.6,1.9,5.6,1.7
			c3.9-0.3,7.6-1.5,10.5-4.5c2.4-2.5,4.6-4.6,7.7-5.3c0,0-2.7-1.6-2.7-1.7c-2,1.2-3.9,2.5-5.9,3.6c-2.6,1.5-5.4,2.8-8.2,3.8
			c-4.1,1.3-7-0.7-7.9-4.9c-0.2-0.8-0.3-1.5-0.4-2.3c-0.6-3.9-1.2-7.7-1.9-11.6c-0.3-1.8-1.2-3.4-3.3-3.4c-6.4,0-10.4,1.9-11,7.9
			c0,0.2-0.2,0.5-0.6,1.2c-1.4-8.7,5.7-9.9,10.6-13.1l-14.3-6.5c7.4,0.2,14.4,3.5,19.3,9.1c0.9,1.2,1.5,2.5,1.8,4
			c0.9,4.4,1.5,8.8,2.4,13.1c0.6,3,3.2,4.9,5.6,3.7c4.1-2,8.2-4.3,12.4-6.7c-2.9-2-5.8-4.1-8.5-6.3c-0.1,0.2-0.2,0.4-0.3,0.6l0,0
			v0.1l0,0l0,0c-1.8,3.5-2.9,4-5.1,2.6c0.2-0.2,0.4-0.5,0.6-0.7c1.1-1,1.9-2.2,2.6-3.5l0,0l-4.6-7.1c-3.7-2.4-6.3-5.9-8.9-9.2
			c-2.2-2.8-4.5-5.6-6.8-8.4c-0.5-0.9-1.6-1.4-2.6-1.2L160,196c-0.4,0.1-0.8,0.3-1.1,0.6c-1.8,1.3-3.5,2.8-5.4,4.2
			c-0.9,0.6-1.9,1.1-2.8,1.7l-0.4-0.6l6.5-7.2l-5.2-2.4c-3,2.8-4.2,7-8,8.7l-0.6-0.5l6.6-9.2l-6.3-3.4l0.2-0.5l11.6,4.2
			c1,0,0.3-3.5-0.9-5.4c-1.4-2.7-2.8-5.5-4-8.4c-1.1-2.8-0.6-3.2-1.8-4.4c-0.4-0.4-0.9-0.8-1.3-1.3c-1.3-1.6-3-0.5-4.5,0.2
			c-0.8,0.3-1.6,0.6-2.4,0.9c-4.6,1.3-7.8,5.6-7.6,10.5c0.1,1.5,0.1,3.1,0.1,4.6c0,1.9-0.2,3.8-0.3,5.7h-0.6
			c-0.5-6.6-3.7-13.3,1.6-19.4c-4.9-3.7-11.5-4.1-16.8-0.9c-1.6,1.2-3.2,2.5-4.7,3.8c-4.6,4.2-10.8,6.3-17,6c0.3-0.3,0.6-0.5,1-0.6
			c6.6-1.1,11.7-4.6,16.7-9.1c4.8-4.4,11-7.1,18-3.8c5.4,2.6,10,1,15.1-2.4c-2.1,0.1-3.8-0.1-5.2,0.4c-3.6,1.2-6.7,0.4-9.8-1.4
			c-1-0.6-2.1-1.1-3.2-1.3c-2.8-0.6-3.4-1.2-3.6-4.4c11.9,6.5,15,6.6,20.2,0.1c-0.8-0.5-1.5-1.4-2.3-1.5c-6.7-1-13.3-2.8-20.2-1.7
			c-3.8,0.6-7.6,0.8-11.3,1.6c-1.7,0.4-3.2,1.4-4.3,2.8c-1.1,1.8-1.9,3.7-2.3,5.8c-1.4,4.7-5.6,7.8-10.2,7c2.1-1.4,4.1-2.7,5.9-4
			c0.4-0.3,0.5-0.9,0.8-1.4c-0.5-0.1-1-0.1-1.4-0.1c-1.6,0.5-3.2,1.1-4.8,1.7l-0.3-0.6c1.8-1.1,3.6-2.3,5.5-3.2
			c2.4-1.1,2.6-3.4,3.4-5.7c-8.8,2.7-16.8,7.2-23.7,13.4l6.1,4.4l-0.4,0.9l-3-0.9l0.9,4.6l-0.6,0.2l-5-7.4
			c-7.1,6.3-12.8,13.9-17,22.4c-4.5,9.1-6.4,18.7-6.7,28.9c-0.3,12.1,1.2,23.8,6,35c6.2,14.4,16.9,25.1,28.5,35.2
			c6.3,5.5,14.1,8,21.8,10.6c4.4,1.4,9,2.4,13.6,3c3.7,0.5,11.3,1,15.3,1c0.2-0.5-0.2-3.5-3.1-3c-4-0.3-4.2-2.6-6.3-4
			c2.3,0.5,4.5,2.4,6.8,1.6c0-0.9,0.2-1.3-1.9-3.8c1.5,1.1,5.2,3,6.1,4.3c2.3,3.2,2.9,4.5,6.6,3.6c4.3-1,8.1-3,12.5-4
			c2.7-0.6,5.5-1.3,8.5-2.1l-4.5-4.1c-1.1,0.6-2.1,1.2-3.1,1.8c-4.3,2.2-5.3,2-8.2-1.9c-0.2-0.2-0.4-0.5-0.5-0.8
			c-1.7-3.4-4.4-3.8-7.9-3.2c-3,0.4-6,0.6-9.1,0.4c-1.4-0.1-2.7-1-4.1-1.5l0.2-0.8h10.2L139,289l0.7-0.2c0.6,1.4,1.3,2.7,1.8,4.1
			c0.4,1.5,1.9,2.5,3.4,2.4c1.6-0.1,3.1,0,4.6,0.5c0.3,0.1,0.5,0.2,0.8,0.2c3.8,1.3,4.2,3.5,4.2,3.5l0,0c-0.1,0.8,0.5,1.5,1.3,1.5
			c0.3,0,0.5,0,0.7-0.1c0.8-0.3,1.6-0.7,2.3-1.1l0,0c7.4-5.4,9.8-0.9,9.8-0.9l0,0c0.4,1,1.1,1.9,1.9,2.5c1.7,1.5,3.4,1.1,4.9,0
			c6-4.5,12-9,18.1-13.6c-0.9-1.9-2.6-3.4-4.7-4.1c-1.8-0.5-4.6,1-4.6,1s-6,2-6.9,1.1s-5.4,0.3-6.6,0.9s-4.5,1.6-5.2,1.9
			s-2.9-0.4-4.5-1.6c-0.9-0.7-2.2-0.8-3.2-0.3c-0.4,0.5-0.8,1.1-1,1.7c-0.3,0.9-4.6,0.8-4.6,0.8s3.4-1.9,4-3.9s4.9-0.7,7.6-0.3
			s3.5-0.9,4.5-2.6c0.5-1.1,0.3-2.5-0.5-3.4c0,0-4.4-2.2-6.4-2.8c-1.4-0.3-2.9-0.1-4.2,0.5c-1.4,0.6-2.8,1-4.3,1.4
			c-1.5,0.2-3-0.2-4.3-1l3.6-1.3c2.5,1,5.5-3.9,12.9-2.3s8.5,6.7,8.5,6.7l1.6-2.7l-0.6-3.2c-1.8-0.8-3.6-1.3-5.5-1.8
			c-2.6-0.5-3.2-3.9-3.2-3.9l-0.7-2l3,1.5c0.4,4.4,5.8,1.2,9.3,4.3s-0.5,9.5-0.5,9.5c7-2.1,13.4-3.2,18.6,3c0.5-1.7,1.2-3.3,2-4.9
			c0.9-1.4,2.4-2.4,3.2-3.8c1.2-2.2,2.1-4.6,3.2-7.1c-6.3-4.2-13.1-5-20.4-3.9c-1.6-4.9-5.1-7.9-9.7-9.7c-2-0.8-4-1.4-5.9-2.2
			c-1.4-0.6-2.8-1.1-4.2-1.7l0.3-0.8c4.6,1.2,9.2,2.2,13.7,3.7c1.9,0.8,3.6,2,4.9,3.6c4.2,4.8,9.3,6.3,16.2,3.9
			c-1.4-2.1-2.5-4.3-4.2-5.8s-4.2-2.2-6.8-3.4l5-0.8c1.8-0.3,2.8-1.3,2.6-3.2s-0.5-3.6-0.7-5.2l3.7,3c-1.8,2.3-2.1,5.5-0.8,8.2
			c1.1,2.4,1.9,4.9,2.9,7.3c0.1,0.3,0.4,0.6,0.7,0.8c1.6,0.8,3.3,1.5,5.2,2.4c0.8-6.7,1.6-13,2.4-19.8h-8L201.1,244.8z"/>
		<path class="st2" d="M77,293.7c-10.8-9.5-19.3-20.5-24-34.3c-1.5-4.4-2.6-8.8-4-13.5c-0.4,0.2-0.8,0.5-1.2,0.8
			c3.7,25.1,18.2,47.3,39.8,60.7c0.3,0.1,0.5,0.1,0.8,0.2c2.6,1.1,2.7,0.2,3.9,0.6c-1.7-1.7-3.2-3.7-4.9-5.3
			C84,299.7,80.5,296.7,77,293.7z"/>
		<path class="st2" d="M376.7,164.3c-1.7,20.5,6.4-39.4,6.4-39.4s-8.5-34.7-12.6-44.6C370.5,80.3,380.1,122.3,376.7,164.3z"/>
		<path class="st2" d="M201.1,244.8l7.3-1.5c-0.2-1-0.4-1.9-0.6-2.7c-0.5-1.3-1.3-2.4-2.4-3.2c-0.8-0.6-1.7-1.1-2.7-1.5l-0.6-0.3
			c-2.1-0.6-4.3-0.1-5.9,1.3c-3.8,3.7-8.3,6.1-13,8.3c-6.9,3.2-5,3.4-10.7-1.4c-2.9-2.8-7.1-3.8-11-2.8c-4.1,0.9-8.3,1.7-12.4,2.4
			c-1.7,0.3-3.4,0.3-4.2-1.4c2.6-0.4,5.1-0.7,7.6-1.3s4.9-1.5,7.4-2.1c5.1-1.3,9.8-1.2,14.1,2.6c1.6,1.2,3.6,1.9,5.6,1.7
			c3.9-0.3,7.6-1.5,10.5-4.5c2.4-2.5,4.6-4.6,7.7-5.3c0,0-2.7-1.6-2.7-1.7c-2,1.2-3.9,2.5-5.9,3.6c-2.6,1.5-5.4,2.8-8.2,3.8
			c-4.1,1.3-7-0.7-7.9-4.9c-0.2-0.8-0.3-1.5-0.4-2.3c-0.6-3.9-1.2-7.7-1.9-11.6c-0.3-1.8-1.2-3.4-3.3-3.4c-6.4,0-10.4,1.9-11,7.9
			c0,0.2-0.2,0.5-0.6,1.2c-1.4-8.7,5.7-9.9,10.6-13.1l-14.3-6.5c7.4,0.2,14.4,3.5,19.3,9.1c0.9,1.2,1.5,2.5,1.8,4
			c0.9,4.4,1.5,8.8,2.4,13.1c0.6,3,3.2,4.9,5.6,3.7c4.1-2,8.2-4.3,12.4-6.7c-2.9-2-5.8-4.1-8.5-6.3c-0.1,0.2-0.2,0.4-0.3,0.6l0,0
			v0.1l0,0l0,0c-1.8,3.5-2.9,4-5.1,2.6c0.2-0.2,0.4-0.5,0.6-0.7c1.1-1,1.9-2.2,2.6-3.5l0,0l-4.6-7.1c-3.7-2.4-6.3-5.9-8.9-9.2
			c-2.2-2.8-4.5-5.6-6.8-8.4c-0.5-0.9-1.6-1.4-2.6-1.2L160,196c-0.4,0.1-0.8,0.3-1.1,0.6c-1.8,1.3-3.5,2.8-5.4,4.2
			c-0.9,0.6-1.9,1.1-2.8,1.7l-0.4-0.6l6.5-7.2l-5.2-2.4c-3,2.8-4.2,7-8,8.7l-0.6-0.5l6.6-9.2l-6.3-3.4l0.2-0.5l11.6,4.2
			c1,0,0.3-3.5-0.9-5.4c-1.4-2.7-2.8-5.5-4-8.4c-1.1-2.8-0.6-3.2-1.8-4.4c-0.4-0.4-0.9-0.8-1.3-1.3c-1.3-1.6-3-0.5-4.5,0.2
			c-0.8,0.3-1.6,0.6-2.4,0.9c-4.6,1.3-7.8,5.6-7.6,10.5c0.1,1.5,0.1,3.1,0.1,4.6c0,1.9-0.2,3.8-0.3,5.7h-0.6
			c-0.5-6.6-3.7-13.3,1.6-19.4c-4.9-3.7-11.5-4.1-16.8-0.9c-1.6,1.2-3.2,2.5-4.7,3.8c-4.6,4.2-10.8,6.3-17,6c0.3-0.3,0.6-0.5,1-0.6
			c6.6-1.1,11.7-4.6,16.7-9.1c4.8-4.4,11-7.1,18-3.8c5.4,2.6,10,1,15.1-2.4c-2.1,0.1-3.8-0.1-5.2,0.4c-3.6,1.2-6.7,0.4-9.8-1.4
			c-1-0.6-2.1-1.1-3.2-1.3c-2.8-0.6-3.4-1.2-3.6-4.4c11.9,6.5,15,6.6,20.2,0.1c-0.8-0.5-1.5-1.4-2.3-1.5c-6.7-1-13.3-2.8-20.2-1.7
			c-3.8,0.6-7.6,0.8-11.3,1.6c-1.7,0.4-3.2,1.4-4.3,2.8c-1.1,1.8-1.9,3.7-2.3,5.8c-1.4,4.7-5.6,7.8-10.2,7c2.1-1.4,4.1-2.7,5.9-4
			c0.4-0.3,0.5-0.9,0.8-1.4c-0.5-0.1-1-0.1-1.4-0.1c-1.6,0.5-3.2,1.1-4.8,1.7l-0.3-0.6c1.8-1.1,3.6-2.3,5.5-3.2
			c2.4-1.1,2.6-3.4,3.4-5.7c-8.8,2.7-16.8,7.2-23.7,13.4l6.1,4.4l-0.4,0.9l-3-0.9l0.9,4.6l-0.6,0.2l-5-7.4
			c-7.1,6.3-12.8,13.9-17,22.4c-4.5,9.1-6.4,18.7-6.7,28.9c-0.3,12.1,1.2,23.8,6,35c6.2,14.4,16.9,25.1,28.5,35.2
			c6.3,5.5,14.1,8,21.8,10.6c4.4,1.4,9,2.4,13.6,3c3.7,0.5,11.3,1,15.3,1c0.2-0.5-0.2-3.5-3.1-3c-4-0.3-4.2-2.6-6.3-4
			c2.3,0.5,4.5,2.4,6.8,1.6c0-0.9,0.2-1.3-1.9-3.8c1.5,1.1,5.2,3,6.1,4.3c2.3,3.2,2.9,4.5,6.6,3.6c4.3-1,8.1-3,12.5-4
			c2.7-0.6,5.5-1.3,8.5-2.1l-4.5-4.1c-1.1,0.6-2.1,1.2-3.1,1.8c-4.3,2.2-5.3,2-8.2-1.9c-0.2-0.2-0.4-0.5-0.5-0.8
			c-1.7-3.4-4.4-3.8-7.9-3.2c-3,0.4-6,0.6-9.1,0.4c-1.4-0.1-2.7-1-4.1-1.5l0.2-0.8h10.2L139,289l0.7-0.2c0.6,1.4,1.3,2.7,1.8,4.1
			c0.4,1.5,1.9,2.5,3.4,2.4c1.6-0.1,3.1,0,4.6,0.5c0.3,0.1,0.5,0.2,0.8,0.2c3.8,1.3,4.2,3.5,4.2,3.5l0,0c-0.1,0.8,0.5,1.5,1.3,1.5
			c0.3,0,0.5,0,0.7-0.1c0.8-0.3,1.6-0.7,2.3-1.1l0,0c7.4-5.4,9.8-0.9,9.8-0.9l0,0c0.4,1,1.1,1.9,1.9,2.5c1.7,1.5,3.4,1.1,4.9,0
			c6-4.5,12-9,18.1-13.6c-0.9-1.9-2.6-3.4-4.7-4.1c-1.8-0.5-4.6,1-4.6,1s-6,2-6.9,1.1s-5.4,0.3-6.6,0.9s-4.5,1.6-5.2,1.9
			s-2.9-0.4-4.5-1.6c-0.9-0.7-2.2-0.8-3.2-0.3c-0.4,0.5-0.8,1.1-1,1.7c-0.3,0.9-4.6,0.8-4.6,0.8s3.4-1.9,4-3.9s4.9-0.7,7.6-0.3
			s3.5-0.9,4.5-2.6c0.5-1.1,0.3-2.5-0.5-3.4c0,0-4.4-2.2-6.4-2.8c-1.4-0.3-2.9-0.1-4.2,0.5c-1.4,0.6-2.8,1-4.3,1.4
			c-1.5,0.2-3-0.2-4.3-1l3.6-1.3c2.5,1,5.5-3.9,12.9-2.3s8.5,6.7,8.5,6.7l1.6-2.7l-0.6-3.2c-1.8-0.8-3.6-1.3-5.5-1.8
			c-2.6-0.5-3.2-3.9-3.2-3.9l-0.7-2l3,1.5c0.4,4.4,5.8,1.2,9.3,4.3s-0.5,9.5-0.5,9.5c7-2.1,13.4-3.2,18.6,3c0.5-1.7,1.2-3.3,2-4.9
			c0.9-1.4,2.4-2.4,3.2-3.8c1.2-2.2,2.1-4.6,3.2-7.1c-6.3-4.2-13.1-5-20.4-3.9c-1.6-4.9-5.1-7.9-9.7-9.7c-2-0.8-4-1.4-5.9-2.2
			c-1.4-0.6-2.8-1.1-4.2-1.7l0.3-0.8c4.6,1.2,9.2,2.2,13.7,3.7c1.9,0.8,3.6,2,4.9,3.6c4.2,4.8,9.3,6.3,16.2,3.9
			c-1.4-2.1-2.5-4.3-4.2-5.8s-4.2-2.2-6.8-3.4l5-0.8c1.8-0.3,2.8-1.3,2.6-3.2s-0.5-3.6-0.7-5.2l3.7,3c-1.8,2.3-2.1,5.5-0.8,8.2
			c1.1,2.4,1.9,4.9,2.9,7.3c0.1,0.3,0.4,0.6,0.7,0.8c1.6,0.8,3.3,1.5,5.2,2.4c0.8-6.7,1.6-13,2.4-19.8h-8L201.1,244.8z"/>
		<path class="st2" d="M77,293.7c-10.8-9.5-19.3-20.5-24-34.3c-1.5-4.4-2.6-8.8-4-13.5c-0.4,0.2-0.8,0.5-1.2,0.8
			c3.7,25.1,18.2,47.3,39.8,60.7c0.3,0.1,0.5,0.1,0.8,0.2c2.6,1.1,2.7,0.2,3.9,0.6c-1.7-1.7-3.2-3.7-4.9-5.3
			C84,299.7,80.5,296.7,77,293.7z"/>
		<path class="st2" d="M376.7,164.3c-1.7,20.5,6.4-39.4,6.4-39.4s-8.5-34.7-12.6-44.6C370.5,80.3,380.1,122.3,376.7,164.3z"/>
		<path class="st2" d="M201.1,244.8l7.3-1.5c-0.2-1-0.4-1.9-0.6-2.7c-0.5-1.3-1.3-2.4-2.4-3.2c-0.8-0.6-1.7-1.1-2.7-1.5l-0.6-0.3
			c-2.1-0.6-4.3-0.1-5.9,1.3c-3.8,3.7-8.3,6.1-13,8.3c-6.9,3.2-5,3.4-10.7-1.4c-2.9-2.8-7.1-3.8-11-2.8c-4.1,0.9-8.3,1.7-12.4,2.4
			c-1.7,0.3-3.4,0.3-4.2-1.4c2.6-0.4,5.1-0.7,7.6-1.3s4.9-1.5,7.4-2.1c5.1-1.3,9.8-1.2,14.1,2.6c1.6,1.2,3.6,1.9,5.6,1.7
			c3.9-0.3,7.6-1.5,10.5-4.5c2.4-2.5,4.6-4.6,7.7-5.3c0,0-2.7-1.6-2.7-1.7c-2,1.2-3.9,2.5-5.9,3.6c-2.6,1.5-5.4,2.8-8.2,3.8
			c-4.1,1.3-7-0.7-7.9-4.9c-0.2-0.8-0.3-1.5-0.4-2.3c-0.6-3.9-1.2-7.7-1.9-11.6c-0.3-1.8-1.2-3.4-3.3-3.4c-6.4,0-10.4,1.9-11,7.9
			c0,0.2-0.2,0.5-0.6,1.2c-1.4-8.7,5.7-9.9,10.6-13.1l-14.3-6.5c7.4,0.2,14.4,3.5,19.3,9.1c0.9,1.2,1.5,2.5,1.8,4
			c0.9,4.4,1.5,8.8,2.4,13.1c0.6,3,3.2,4.9,5.6,3.7c4.1-2,8.2-4.3,12.4-6.7c-2.9-2-5.8-4.1-8.5-6.3c-0.1,0.2-0.2,0.4-0.3,0.6l0,0
			v0.1l0,0l0,0c-1.8,3.5-2.9,4-5.1,2.6c0.2-0.2,0.4-0.5,0.6-0.7c1.1-1,1.9-2.2,2.6-3.5l0,0l-4.6-7.1c-3.7-2.4-6.3-5.9-8.9-9.2
			c-2.2-2.8-4.5-5.6-6.8-8.4c-0.5-0.9-1.6-1.4-2.6-1.2L160,196c-0.4,0.1-0.8,0.3-1.1,0.6c-1.8,1.3-3.5,2.8-5.4,4.2
			c-0.9,0.6-1.9,1.1-2.8,1.7l-0.4-0.6l6.5-7.2l-5.2-2.4c-3,2.8-4.2,7-8,8.7l-0.6-0.5l6.6-9.2l-6.3-3.4l0.2-0.5l11.6,4.2
			c1,0,0.3-3.5-0.9-5.4c-1.4-2.7-2.8-5.5-4-8.4c-1.1-2.8-0.6-3.2-1.8-4.4c-0.4-0.4-0.9-0.8-1.3-1.3c-1.3-1.6-3-0.5-4.5,0.2
			c-0.8,0.3-1.6,0.6-2.4,0.9c-4.6,1.3-7.8,5.6-7.6,10.5c0.1,1.5,0.1,3.1,0.1,4.6c0,1.9-0.2,3.8-0.3,5.7h-0.6
			c-0.5-6.6-3.7-13.3,1.6-19.4c-4.9-3.7-11.5-4.1-16.8-0.9c-1.6,1.2-3.2,2.5-4.7,3.8c-4.6,4.2-10.8,6.3-17,6c0.3-0.3,0.6-0.5,1-0.6
			c6.6-1.1,11.7-4.6,16.7-9.1c4.8-4.4,11-7.1,18-3.8c5.4,2.6,10,1,15.1-2.4c-2.1,0.1-3.8-0.1-5.2,0.4c-3.6,1.2-6.7,0.4-9.8-1.4
			c-1-0.6-2.1-1.1-3.2-1.3c-2.8-0.6-3.4-1.2-3.6-4.4c11.9,6.5,15,6.6,20.2,0.1c-0.8-0.5-1.5-1.4-2.3-1.5c-6.7-1-13.3-2.8-20.2-1.7
			c-3.8,0.6-7.6,0.8-11.3,1.6c-1.7,0.4-3.2,1.4-4.3,2.8c-1.1,1.8-1.9,3.7-2.3,5.8c-1.4,4.7-5.6,7.8-10.2,7c2.1-1.4,4.1-2.7,5.9-4
			c0.4-0.3,0.5-0.9,0.8-1.4c-0.5-0.1-1-0.1-1.4-0.1c-1.6,0.5-3.2,1.1-4.8,1.7l-0.3-0.6c1.8-1.1,3.6-2.3,5.5-3.2
			c2.4-1.1,2.6-3.4,3.4-5.7c-8.8,2.7-16.8,7.2-23.7,13.4l6.1,4.4l-0.4,0.9l-3-0.9l0.9,4.6l-0.6,0.2l-5-7.4
			c-7.1,6.3-12.8,13.9-17,22.4c-4.5,9.1-6.4,18.7-6.7,28.9c-0.3,12.1,1.2,23.8,6,35c6.2,14.4,16.9,25.1,28.5,35.2
			c6.3,5.5,14.1,8,21.8,10.6c4.4,1.4,9,2.4,13.6,3c3.7,0.5,11.3,1,15.3,1c0.2-0.5-0.2-3.5-3.1-3c-4-0.3-4.2-2.6-6.3-4
			c2.3,0.5,4.5,2.4,6.8,1.6c0-0.9,0.2-1.3-1.9-3.8c1.5,1.1,5.2,3,6.1,4.3c2.3,3.2,2.9,4.5,6.6,3.6c4.3-1,8.1-3,12.5-4
			c2.7-0.6,5.5-1.3,8.5-2.1l-4.5-4.1c-1.1,0.6-2.1,1.2-3.1,1.8c-4.3,2.2-5.3,2-8.2-1.9c-0.2-0.2-0.4-0.5-0.5-0.8
			c-1.7-3.4-4.4-3.8-7.9-3.2c-3,0.4-6,0.6-9.1,0.4c-1.4-0.1-2.7-1-4.1-1.5l0.2-0.8h10.2L139,289l0.7-0.2c0.6,1.4,1.3,2.7,1.8,4.1
			c0.4,1.5,1.9,2.5,3.4,2.4c1.6-0.1,3.1,0,4.6,0.5c0.3,0.1,0.5,0.2,0.8,0.2c3.8,1.3,4.2,3.5,4.2,3.5l0,0c-0.1,0.8,0.5,1.5,1.3,1.5
			c0.3,0,0.5,0,0.7-0.1c0.8-0.3,1.6-0.7,2.3-1.1l0,0c7.4-5.4,9.8-0.9,9.8-0.9l0,0c0.4,1,1.1,1.9,1.9,2.5c1.7,1.5,3.4,1.1,4.9,0
			c6-4.5,12-9,18.1-13.6c-0.9-1.9-2.6-3.4-4.7-4.1c-1.8-0.5-4.6,1-4.6,1s-6,2-6.9,1.1s-5.4,0.3-6.6,0.9s-4.5,1.6-5.2,1.9
			s-2.9-0.4-4.5-1.6c-0.9-0.7-2.2-0.8-3.2-0.3c-0.4,0.5-0.8,1.1-1,1.7c-0.3,0.9-4.6,0.8-4.6,0.8s3.4-1.9,4-3.9s4.9-0.7,7.6-0.3
			s3.5-0.9,4.5-2.6c0.5-1.1,0.3-2.5-0.5-3.4c0,0-4.4-2.2-6.4-2.8c-1.4-0.3-2.9-0.1-4.2,0.5c-1.4,0.6-2.8,1-4.3,1.4
			c-1.5,0.2-3-0.2-4.3-1l3.6-1.3c2.5,1,5.5-3.9,12.9-2.3s8.5,6.7,8.5,6.7l1.6-2.7l-0.6-3.2c-1.8-0.8-3.6-1.3-5.5-1.8
			c-2.6-0.5-3.2-3.9-3.2-3.9l-0.7-2l3,1.5c0.4,4.4,5.8,1.2,9.3,4.3s-0.5,9.5-0.5,9.5c7-2.1,13.4-3.2,18.6,3c0.5-1.7,1.2-3.3,2-4.9
			c0.9-1.4,2.4-2.4,3.2-3.8c1.2-2.2,2.1-4.6,3.2-7.1c-6.3-4.2-13.1-5-20.4-3.9c-1.6-4.9-5.1-7.9-9.7-9.7c-2-0.8-4-1.4-5.9-2.2
			c-1.4-0.6-2.8-1.1-4.2-1.7l0.3-0.8c4.6,1.2,9.2,2.2,13.7,3.7c1.9,0.8,3.6,2,4.9,3.6c4.2,4.8,9.3,6.3,16.2,3.9
			c-1.4-2.1-2.5-4.3-4.2-5.8s-4.2-2.2-6.8-3.4l5-0.8c1.8-0.3,2.8-1.3,2.6-3.2s-0.5-3.6-0.7-5.2l3.7,3c-1.8,2.3-2.1,5.5-0.8,8.2
			c1.1,2.4,1.9,4.9,2.9,7.3c0.1,0.3,0.4,0.6,0.7,0.8c1.6,0.8,3.3,1.5,5.2,2.4c0.8-6.7,1.6-13,2.4-19.8h-8L201.1,244.8z"/>
		<path class="st2" d="M77,293.7c-10.8-9.5-19.3-20.5-24-34.3c-1.5-4.4-2.6-8.8-4-13.5c-0.4,0.2-0.8,0.5-1.2,0.8
			c3.7,25.1,18.2,47.3,39.8,60.7c0.3,0.1,0.5,0.1,0.8,0.2c2.6,1.1,2.7,0.2,3.9,0.6c-1.7-1.7-3.2-3.7-4.9-5.3
			C84,299.7,80.5,296.7,77,293.7z"/>
		<path class="st2" d="M376.7,164.3c-1.7,20.5,6.4-39.4,6.4-39.4s-8.5-34.7-12.6-44.6C370.5,80.3,380.1,122.3,376.7,164.3z"/>
		<path class="st2" d="M201.1,244.8l7.3-1.5c-0.2-1-0.4-1.9-0.6-2.7c-0.5-1.3-1.3-2.4-2.4-3.2c-0.8-0.6-1.7-1.1-2.7-1.5l-0.6-0.3
			c-2.1-0.6-4.3-0.1-5.9,1.3c-3.8,3.7-8.3,6.1-13,8.3c-6.9,3.2-5,3.4-10.7-1.4c-2.9-2.8-7.1-3.8-11-2.8c-4.1,0.9-8.3,1.7-12.4,2.4
			c-1.7,0.3-3.4,0.3-4.2-1.4c2.6-0.4,5.1-0.7,7.6-1.3s4.9-1.5,7.4-2.1c5.1-1.3,9.8-1.2,14.1,2.6c1.6,1.2,3.6,1.9,5.6,1.7
			c3.9-0.3,7.6-1.5,10.5-4.5c2.4-2.5,4.6-4.6,7.7-5.3c0,0-2.7-1.6-2.7-1.7c-2,1.2-3.9,2.5-5.9,3.6c-2.6,1.5-5.4,2.8-8.2,3.8
			c-4.1,1.3-7-0.7-7.9-4.9c-0.2-0.8-0.3-1.5-0.4-2.3c-0.6-3.9-1.2-7.7-1.9-11.6c-0.3-1.8-1.2-3.4-3.3-3.4c-6.4,0-10.4,1.9-11,7.9
			c0,0.2-0.2,0.5-0.6,1.2c-1.4-8.7,5.7-9.9,10.6-13.1l-14.3-6.5c7.4,0.2,14.4,3.5,19.3,9.1c0.9,1.2,1.5,2.5,1.8,4
			c0.9,4.4,1.5,8.8,2.4,13.1c0.6,3,3.2,4.9,5.6,3.7c4.1-2,8.2-4.3,12.4-6.7c-2.9-2-5.8-4.1-8.5-6.3c-0.1,0.2-0.2,0.4-0.3,0.6l0,0
			v0.1l0,0l0,0c-1.8,3.5-2.9,4-5.1,2.6c0.2-0.2,0.4-0.5,0.6-0.7c1.1-1,1.9-2.2,2.6-3.5l0,0l-4.6-7.1c-3.7-2.4-6.3-5.9-8.9-9.2
			c-2.2-2.8-4.5-5.6-6.8-8.4c-0.5-0.9-1.6-1.4-2.6-1.2L160,196c-0.4,0.1-0.8,0.3-1.1,0.6c-1.8,1.3-3.5,2.8-5.4,4.2
			c-0.9,0.6-1.9,1.1-2.8,1.7l-0.4-0.6l6.5-7.2l-5.2-2.4c-3,2.8-4.2,7-8,8.7l-0.6-0.5l6.6-9.2l-6.3-3.4l0.2-0.5l11.6,4.2
			c1,0,0.3-3.5-0.9-5.4c-1.4-2.7-2.8-5.5-4-8.4c-1.1-2.8-0.6-3.2-1.8-4.4c-0.4-0.4-0.9-0.8-1.3-1.3c-1.3-1.6-3-0.5-4.5,0.2
			c-0.8,0.3-1.6,0.6-2.4,0.9c-4.6,1.3-7.8,5.6-7.6,10.5c0.1,1.5,0.1,3.1,0.1,4.6c0,1.9-0.2,3.8-0.3,5.7h-0.6
			c-0.5-6.6-3.7-13.3,1.6-19.4c-4.9-3.7-11.5-4.1-16.8-0.9c-1.6,1.2-3.2,2.5-4.7,3.8c-4.6,4.2-10.8,6.3-17,6c0.3-0.3,0.6-0.5,1-0.6
			c6.6-1.1,11.7-4.6,16.7-9.1c4.8-4.4,11-7.1,18-3.8c5.4,2.6,10,1,15.1-2.4c-2.1,0.1-3.8-0.1-5.2,0.4c-3.6,1.2-6.7,0.4-9.8-1.4
			c-1-0.6-2.1-1.1-3.2-1.3c-2.8-0.6-3.4-1.2-3.6-4.4c11.9,6.5,15,6.6,20.2,0.1c-0.8-0.5-1.5-1.4-2.3-1.5c-6.7-1-13.3-2.8-20.2-1.7
			c-3.8,0.6-7.6,0.8-11.3,1.6c-1.7,0.4-3.2,1.4-4.3,2.8c-1.1,1.8-1.9,3.7-2.3,5.8c-1.4,4.7-5.6,7.8-10.2,7c2.1-1.4,4.1-2.7,5.9-4
			c0.4-0.3,0.5-0.9,0.8-1.4c-0.5-0.1-1-0.1-1.4-0.1c-1.6,0.5-3.2,1.1-4.8,1.7l-0.3-0.6c1.8-1.1,3.6-2.3,5.5-3.2
			c2.4-1.1,2.6-3.4,3.4-5.7c-8.8,2.7-16.8,7.2-23.7,13.4l6.1,4.4l-0.4,0.9l-3-0.9l0.9,4.6l-0.6,0.2l-5-7.4
			c-7.1,6.3-12.8,13.9-17,22.4c-4.5,9.1-6.4,18.7-6.7,28.9c-0.3,12.1,1.2,23.8,6,35c6.2,14.4,16.9,25.1,28.5,35.2
			c6.3,5.5,14.1,8,21.8,10.6c4.4,1.4,9,2.4,13.6,3c3.7,0.5,11.3,1,15.3,1c0.2-0.5-0.2-3.5-3.1-3c-4-0.3-4.2-2.6-6.3-4
			c2.3,0.5,4.5,2.4,6.8,1.6c0-0.9,0.2-1.3-1.9-3.8c1.5,1.1,5.2,3,6.1,4.3c2.3,3.2,2.9,4.5,6.6,3.6c4.3-1,8.1-3,12.5-4
			c2.7-0.6,5.5-1.3,8.5-2.1l-4.5-4.1c-1.1,0.6-2.1,1.2-3.1,1.8c-4.3,2.2-5.3,2-8.2-1.9c-0.2-0.2-0.4-0.5-0.5-0.8
			c-1.7-3.4-4.4-3.8-7.9-3.2c-3,0.4-6,0.6-9.1,0.4c-1.4-0.1-2.7-1-4.1-1.5l0.2-0.8h10.2L139,289l0.7-0.2c0.6,1.4,1.3,2.7,1.8,4.1
			c0.4,1.5,1.9,2.5,3.4,2.4c1.6-0.1,3.1,0,4.6,0.5c0.3,0.1,0.5,0.2,0.8,0.2c3.8,1.3,4.2,3.5,4.2,3.5l0,0c-0.1,0.8,0.5,1.5,1.3,1.5
			c0.3,0,0.5,0,0.7-0.1c0.8-0.3,1.6-0.7,2.3-1.1l0,0c7.4-5.4,9.8-0.9,9.8-0.9l0,0c0.4,1,1.1,1.9,1.9,2.5c1.7,1.5,3.4,1.1,4.9,0
			c6-4.5,12-9,18.1-13.6c-0.9-1.9-2.6-3.4-4.7-4.1c-1.8-0.5-4.6,1-4.6,1s-6,2-6.9,1.1s-5.4,0.3-6.6,0.9s-4.5,1.6-5.2,1.9
			s-2.9-0.4-4.5-1.6c-0.9-0.7-2.2-0.8-3.2-0.3c-0.4,0.5-0.8,1.1-1,1.7c-0.3,0.9-4.6,0.8-4.6,0.8s3.4-1.9,4-3.9s4.9-0.7,7.6-0.3
			s3.5-0.9,4.5-2.6c0.5-1.1,0.3-2.5-0.5-3.4c0,0-4.4-2.2-6.4-2.8c-1.4-0.3-2.9-0.1-4.2,0.5c-1.4,0.6-2.8,1-4.3,1.4
			c-1.5,0.2-3-0.2-4.3-1l3.6-1.3c2.5,1,5.5-3.9,12.9-2.3s8.5,6.7,8.5,6.7l1.6-2.7l-0.6-3.2c-1.8-0.8-3.6-1.3-5.5-1.8
			c-2.6-0.5-3.2-3.9-3.2-3.9l-0.7-2l3,1.5c0.4,4.4,5.8,1.2,9.3,4.3s-0.5,9.5-0.5,9.5c7-2.1,13.4-3.2,18.6,3c0.5-1.7,1.2-3.3,2-4.9
			c0.9-1.4,2.4-2.4,3.2-3.8c1.2-2.2,2.1-4.6,3.2-7.1c-6.3-4.2-13.1-5-20.4-3.9c-1.6-4.9-5.1-7.9-9.7-9.7c-2-0.8-4-1.4-5.9-2.2
			c-1.4-0.6-2.8-1.1-4.2-1.7l0.3-0.8c4.6,1.2,9.2,2.2,13.7,3.7c1.9,0.8,3.6,2,4.9,3.6c4.2,4.8,9.3,6.3,16.2,3.9
			c-1.4-2.1-2.5-4.3-4.2-5.8s-4.2-2.2-6.8-3.4l5-0.8c1.8-0.3,2.8-1.3,2.6-3.2s-0.5-3.6-0.7-5.2l3.7,3c-1.8,2.3-2.1,5.5-0.8,8.2
			c1.1,2.4,1.9,4.9,2.9,7.3c0.1,0.3,0.4,0.6,0.7,0.8c1.6,0.8,3.3,1.5,5.2,2.4c0.8-6.7,1.6-13,2.4-19.8h-8L201.1,244.8z"/>
		<path class="st2" d="M77,293.7c-10.8-9.5-19.3-20.5-24-34.3c-1.5-4.4-2.6-8.8-4-13.5c-0.4,0.2-0.8,0.5-1.2,0.8
			c3.7,25.1,18.2,47.3,39.8,60.7c0.3,0.1,0.5,0.1,0.8,0.2c2.6,1.1,2.7,0.2,3.9,0.6c-1.7-1.7-3.2-3.7-4.9-5.3
			C84,299.7,80.5,296.7,77,293.7z"/>
		<path class="st2" d="M376.7,164.3c-1.7,20.5,6.4-39.4,6.4-39.4s-8.5-34.7-12.6-44.6C370.5,80.3,380.1,122.3,376.7,164.3z"/>
		<path class="st2" d="M201.1,244.8l7.3-1.5c-0.2-1-0.4-1.9-0.6-2.7c-0.5-1.3-1.3-2.4-2.4-3.2c-0.8-0.6-1.7-1.1-2.7-1.5l-0.6-0.3
			c-2.1-0.6-4.3-0.1-5.9,1.3c-3.8,3.7-8.3,6.1-13,8.3c-6.9,3.2-5,3.4-10.7-1.4c-2.9-2.8-7.1-3.8-11-2.8c-4.1,0.9-8.3,1.7-12.4,2.4
			c-1.7,0.3-3.4,0.3-4.2-1.4c2.6-0.4,5.1-0.7,7.6-1.3s4.9-1.5,7.4-2.1c5.1-1.3,9.8-1.2,14.1,2.6c1.6,1.2,3.6,1.9,5.6,1.7
			c3.9-0.3,7.6-1.5,10.5-4.5c2.4-2.5,4.6-4.6,7.7-5.3c0,0-2.7-1.6-2.7-1.7c-2,1.2-3.9,2.5-5.9,3.6c-2.6,1.5-5.4,2.8-8.2,3.8
			c-4.1,1.3-7-0.7-7.9-4.9c-0.2-0.8-0.3-1.5-0.4-2.3c-0.6-3.9-1.2-7.7-1.9-11.6c-0.3-1.8-1.2-3.4-3.3-3.4c-6.4,0-10.4,1.9-11,7.9
			c0,0.2-0.2,0.5-0.6,1.2c-1.4-8.7,5.7-9.9,10.6-13.1l-14.3-6.5c7.4,0.2,14.4,3.5,19.3,9.1c0.9,1.2,1.5,2.5,1.8,4
			c0.9,4.4,1.5,8.8,2.4,13.1c0.6,3,3.2,4.9,5.6,3.7c4.1-2,8.2-4.3,12.4-6.7c-2.9-2-5.8-4.1-8.5-6.3c-0.1,0.2-0.2,0.4-0.3,0.6l0,0
			v0.1l0,0l0,0c-1.8,3.5-2.9,4-5.1,2.6c0.2-0.2,0.4-0.5,0.6-0.7c1.1-1,1.9-2.2,2.6-3.5l0,0l-4.6-7.1c-3.7-2.4-6.3-5.9-8.9-9.2
			c-2.2-2.8-4.5-5.6-6.8-8.4c-0.5-0.9-1.6-1.4-2.6-1.2L160,196c-0.4,0.1-0.8,0.3-1.1,0.6c-1.8,1.3-3.5,2.8-5.4,4.2
			c-0.9,0.6-1.9,1.1-2.8,1.7l-0.4-0.6l6.5-7.2l-5.2-2.4c-3,2.8-4.2,7-8,8.7l-0.6-0.5l6.6-9.2l-6.3-3.4l0.2-0.5l11.6,4.2
			c1,0,0.3-3.5-0.9-5.4c-1.4-2.7-2.8-5.5-4-8.4c-1.1-2.8-0.6-3.2-1.8-4.4c-0.4-0.4-0.9-0.8-1.3-1.3c-1.3-1.6-3-0.5-4.5,0.2
			c-0.8,0.3-1.6,0.6-2.4,0.9c-4.6,1.3-7.8,5.6-7.6,10.5c0.1,1.5,0.1,3.1,0.1,4.6c0,1.9-0.2,3.8-0.3,5.7h-0.6
			c-0.5-6.6-3.7-13.3,1.6-19.4c-4.9-3.7-11.5-4.1-16.8-0.9c-1.6,1.2-3.2,2.5-4.7,3.8c-4.6,4.2-10.8,6.3-17,6c0.3-0.3,0.6-0.5,1-0.6
			c6.6-1.1,11.7-4.6,16.7-9.1c4.8-4.4,11-7.1,18-3.8c5.4,2.6,10,1,15.1-2.4c-2.1,0.1-3.8-0.1-5.2,0.4c-3.6,1.2-6.7,0.4-9.8-1.4
			c-1-0.6-2.1-1.1-3.2-1.3c-2.8-0.6-3.4-1.2-3.6-4.4c11.9,6.5,15,6.6,20.2,0.1c-0.8-0.5-1.5-1.4-2.3-1.5c-6.7-1-13.3-2.8-20.2-1.7
			c-3.8,0.6-7.6,0.8-11.3,1.6c-1.7,0.4-3.2,1.4-4.3,2.8c-1.1,1.8-1.9,3.7-2.3,5.8c-1.4,4.7-5.6,7.8-10.2,7c2.1-1.4,4.1-2.7,5.9-4
			c0.4-0.3,0.5-0.9,0.8-1.4c-0.5-0.1-1-0.1-1.4-0.1c-1.6,0.5-3.2,1.1-4.8,1.7l-0.3-0.6c1.8-1.1,3.6-2.3,5.5-3.2
			c2.4-1.1,2.6-3.4,3.4-5.7c-8.8,2.7-16.8,7.2-23.7,13.4l6.1,4.4l-0.4,0.9l-3-0.9l0.9,4.6l-0.6,0.2l-5-7.4
			c-7.1,6.3-12.8,13.9-17,22.4c-4.5,9.1-6.4,18.7-6.7,28.9c-0.3,12.1,1.2,23.8,6,35c6.2,14.4,16.9,25.1,28.5,35.2
			c6.3,5.5,14.1,8,21.8,10.6c4.4,1.4,9,2.4,13.6,3c3.7,0.5,11.3,1,15.3,1c0.2-0.5-0.2-3.5-3.1-3c-4-0.3-4.2-2.6-6.3-4
			c2.3,0.5,4.5,2.4,6.8,1.6c0-0.9,0.2-1.3-1.9-3.8c1.5,1.1,5.2,3,6.1,4.3c2.3,3.2,2.9,4.5,6.6,3.6c4.3-1,8.1-3,12.5-4
			c2.7-0.6,5.5-1.3,8.5-2.1l-4.5-4.1c-1.1,0.6-2.1,1.2-3.1,1.8c-4.3,2.2-5.3,2-8.2-1.9c-0.2-0.2-0.4-0.5-0.5-0.8
			c-1.7-3.4-4.4-3.8-7.9-3.2c-3,0.4-6,0.6-9.1,0.4c-1.4-0.1-2.7-1-4.1-1.5l0.2-0.8h10.2L139,289l0.7-0.2c0.6,1.4,1.3,2.7,1.8,4.1
			c0.4,1.5,1.9,2.5,3.4,2.4c1.6-0.1,3.1,0,4.6,0.5c0.3,0.1,0.5,0.2,0.8,0.2c3.8,1.3,4.2,3.5,4.2,3.5l0,0c-0.1,0.8,0.5,1.5,1.3,1.5
			c0.3,0,0.5,0,0.7-0.1c0.8-0.3,1.6-0.7,2.3-1.1l0,0c7.4-5.4,9.8-0.9,9.8-0.9l0,0c0.4,1,1.1,1.9,1.9,2.5c1.7,1.5,3.4,1.1,4.9,0
			c6-4.5,12-9,18.1-13.6c-0.9-1.9-2.6-3.4-4.7-4.1c-1.8-0.5-4.6,1-4.6,1s-6,2-6.9,1.1s-5.4,0.3-6.6,0.9s-4.5,1.6-5.2,1.9
			s-2.9-0.4-4.5-1.6c-0.9-0.7-2.2-0.8-3.2-0.3c-0.4,0.5-0.8,1.1-1,1.7c-0.3,0.9-4.6,0.8-4.6,0.8s3.4-1.9,4-3.9s4.9-0.7,7.6-0.3
			s3.5-0.9,4.5-2.6c0.5-1.1,0.3-2.5-0.5-3.4c0,0-4.4-2.2-6.4-2.8c-1.4-0.3-2.9-0.1-4.2,0.5c-1.4,0.6-2.8,1-4.3,1.4
			c-1.5,0.2-3-0.2-4.3-1l3.6-1.3c2.5,1,5.5-3.9,12.9-2.3s8.5,6.7,8.5,6.7l1.6-2.7l-0.6-3.2c-1.8-0.8-3.6-1.3-5.5-1.8
			c-2.6-0.5-3.2-3.9-3.2-3.9l-0.7-2l3,1.5c0.4,4.4,5.8,1.2,9.3,4.3s-0.5,9.5-0.5,9.5c7-2.1,13.4-3.2,18.6,3c0.5-1.7,1.2-3.3,2-4.9
			c0.9-1.4,2.4-2.4,3.2-3.8c1.2-2.2,2.1-4.6,3.2-7.1c-6.3-4.2-13.1-5-20.4-3.9c-1.6-4.9-5.1-7.9-9.7-9.7c-2-0.8-4-1.4-5.9-2.2
			c-1.4-0.6-2.8-1.1-4.2-1.7l0.3-0.8c4.6,1.2,9.2,2.2,13.7,3.7c1.9,0.8,3.6,2,4.9,3.6c4.2,4.8,9.3,6.3,16.2,3.9
			c-1.4-2.1-2.5-4.3-4.2-5.8s-4.2-2.2-6.8-3.4l5-0.8c1.8-0.3,2.8-1.3,2.6-3.2s-0.5-3.6-0.7-5.2l3.7,3c-1.8,2.3-2.1,5.5-0.8,8.2
			c1.1,2.4,1.9,4.9,2.9,7.3c0.1,0.3,0.4,0.6,0.7,0.8c1.6,0.8,3.3,1.5,5.2,2.4c0.8-6.7,1.6-13,2.4-19.8h-8L201.1,244.8z"/>
		<path class="st2" d="M77,293.7c-10.8-9.5-19.3-20.5-24-34.3c-1.5-4.4-2.6-8.8-4-13.5c-0.4,0.2-0.8,0.5-1.2,0.8
			c3.7,25.1,18.2,47.3,39.8,60.7c0.3,0.1,0.5,0.1,0.8,0.2c2.6,1.1,2.7,0.2,3.9,0.6c-1.7-1.7-3.2-3.7-4.9-5.3
			C84,299.7,80.5,296.7,77,293.7z"/>
		<path class="st2" d="M376.7,164.3c-1.7,20.5,6.4-39.4,6.4-39.4s-8.5-34.7-12.6-44.6C370.5,80.3,380.1,122.3,376.7,164.3z"/>
		<path class="st2" d="M201.1,244.8l7.3-1.5c-0.2-1-0.4-1.9-0.6-2.7c-0.5-1.3-1.3-2.4-2.4-3.2c-0.8-0.6-1.7-1.1-2.7-1.5l-0.6-0.3
			c-2.1-0.6-4.3-0.1-5.9,1.3c-3.8,3.7-8.3,6.1-13,8.3c-6.9,3.2-5,3.4-10.7-1.4c-2.9-2.8-7.1-3.8-11-2.8c-4.1,0.9-8.3,1.7-12.4,2.4
			c-1.7,0.3-3.4,0.3-4.2-1.4c2.6-0.4,5.1-0.7,7.6-1.3s4.9-1.5,7.4-2.1c5.1-1.3,9.8-1.2,14.1,2.6c1.6,1.2,3.6,1.9,5.6,1.7
			c3.9-0.3,7.6-1.5,10.5-4.5c2.4-2.5,4.6-4.6,7.7-5.3c0,0-2.7-1.6-2.7-1.7c-2,1.2-3.9,2.5-5.9,3.6c-2.6,1.5-5.4,2.8-8.2,3.8
			c-4.1,1.3-7-0.7-7.9-4.9c-0.2-0.8-0.3-1.5-0.4-2.3c-0.6-3.9-1.2-7.7-1.9-11.6c-0.3-1.8-1.2-3.4-3.3-3.4c-6.4,0-10.4,1.9-11,7.9
			c0,0.2-0.2,0.5-0.6,1.2c-1.4-8.7,5.7-9.9,10.6-13.1l-14.3-6.5c7.4,0.2,14.4,3.5,19.3,9.1c0.9,1.2,1.5,2.5,1.8,4
			c0.9,4.4,1.5,8.8,2.4,13.1c0.6,3,3.2,4.9,5.6,3.7c4.1-2,8.2-4.3,12.4-6.7c-2.9-2-5.8-4.1-8.5-6.3c-0.1,0.2-0.2,0.4-0.3,0.6l0,0
			v0.1l0,0l0,0c-1.8,3.5-2.9,4-5.1,2.6c0.2-0.2,0.4-0.5,0.6-0.7c1.1-1,1.9-2.2,2.6-3.5l0,0l-4.6-7.1c-3.7-2.4-6.3-5.9-8.9-9.2
			c-2.2-2.8-4.5-5.6-6.8-8.4c-0.5-0.9-1.6-1.4-2.6-1.2L160,196c-0.4,0.1-0.8,0.3-1.1,0.6c-1.8,1.3-3.5,2.8-5.4,4.2
			c-0.9,0.6-1.9,1.1-2.8,1.7l-0.4-0.6l6.5-7.2l-5.2-2.4c-3,2.8-4.2,7-8,8.7l-0.6-0.5l6.6-9.2l-6.3-3.4l0.2-0.5l11.6,4.2
			c1,0,0.3-3.5-0.9-5.4c-1.4-2.7-2.8-5.5-4-8.4c-1.1-2.8-0.6-3.2-1.8-4.4c-0.4-0.4-0.9-0.8-1.3-1.3c-1.3-1.6-3-0.5-4.5,0.2
			c-0.8,0.3-1.6,0.6-2.4,0.9c-4.6,1.3-7.8,5.6-7.6,10.5c0.1,1.5,0.1,3.1,0.1,4.6c0,1.9-0.2,3.8-0.3,5.7h-0.6
			c-0.5-6.6-3.7-13.3,1.6-19.4c-4.9-3.7-11.5-4.1-16.8-0.9c-1.6,1.2-3.2,2.5-4.7,3.8c-4.6,4.2-10.8,6.3-17,6c0.3-0.3,0.6-0.5,1-0.6
			c6.6-1.1,11.7-4.6,16.7-9.1c4.8-4.4,11-7.1,18-3.8c5.4,2.6,10,1,15.1-2.4c-2.1,0.1-3.8-0.1-5.2,0.4c-3.6,1.2-6.7,0.4-9.8-1.4
			c-1-0.6-2.1-1.1-3.2-1.3c-2.8-0.6-3.4-1.2-3.6-4.4c11.9,6.5,15,6.6,20.2,0.1c-0.8-0.5-1.5-1.4-2.3-1.5c-6.7-1-13.3-2.8-20.2-1.7
			c-3.8,0.6-7.6,0.8-11.3,1.6c-1.7,0.4-3.2,1.4-4.3,2.8c-1.1,1.8-1.9,3.7-2.3,5.8c-1.4,4.7-5.6,7.8-10.2,7c2.1-1.4,4.1-2.7,5.9-4
			c0.4-0.3,0.5-0.9,0.8-1.4c-0.5-0.1-1-0.1-1.4-0.1c-1.6,0.5-3.2,1.1-4.8,1.7l-0.3-0.6c1.8-1.1,3.6-2.3,5.5-3.2
			c2.4-1.1,2.6-3.4,3.4-5.7c-8.8,2.7-16.8,7.2-23.7,13.4l6.1,4.4l-0.4,0.9l-3-0.9l0.9,4.6l-0.6,0.2l-5-7.4
			c-7.1,6.3-12.8,13.9-17,22.4c-4.5,9.1-6.4,18.7-6.7,28.9c-0.3,12.1,1.2,23.8,6,35c6.2,14.4,16.9,25.1,28.5,35.2
			c6.3,5.5,14.1,8,21.8,10.6c4.4,1.4,9,2.4,13.6,3c3.7,0.5,11.3,1,15.3,1c0.2-0.5-0.2-3.5-3.1-3c-4-0.3-4.2-2.6-6.3-4
			c2.3,0.5,4.5,2.4,6.8,1.6c0-0.9,0.2-1.3-1.9-3.8c1.5,1.1,5.2,3,6.1,4.3c2.3,3.2,2.9,4.5,6.6,3.6c4.3-1,8.1-3,12.5-4
			c2.7-0.6,5.5-1.3,8.5-2.1l-4.5-4.1c-1.1,0.6-2.1,1.2-3.1,1.8c-4.3,2.2-5.3,2-8.2-1.9c-0.2-0.2-0.4-0.5-0.5-0.8
			c-1.7-3.4-4.4-3.8-7.9-3.2c-3,0.4-6,0.6-9.1,0.4c-1.4-0.1-2.7-1-4.1-1.5l0.2-0.8h10.2L139,289l0.7-0.2c0.6,1.4,1.3,2.7,1.8,4.1
			c0.4,1.5,1.9,2.5,3.4,2.4c1.6-0.1,3.1,0,4.6,0.5c0.3,0.1,0.5,0.2,0.8,0.2c3.8,1.3,4.2,3.5,4.2,3.5l0,0c-0.1,0.8,0.5,1.5,1.3,1.5
			c0.3,0,0.5,0,0.7-0.1c0.8-0.3,1.6-0.7,2.3-1.1l0,0c7.4-5.4,9.8-0.9,9.8-0.9l0,0c0.4,1,1.1,1.9,1.9,2.5c1.7,1.5,3.4,1.1,4.9,0
			c6-4.5,12-9,18.1-13.6c-0.9-1.9-2.6-3.4-4.7-4.1c-1.8-0.5-4.6,1-4.6,1s-6,2-6.9,1.1s-5.4,0.3-6.6,0.9s-4.5,1.6-5.2,1.9
			s-2.9-0.4-4.5-1.6c-0.9-0.7-2.2-0.8-3.2-0.3c-0.4,0.5-0.8,1.1-1,1.7c-0.3,0.9-4.6,0.8-4.6,0.8s3.4-1.9,4-3.9s4.9-0.7,7.6-0.3
			s3.5-0.9,4.5-2.6c0.5-1.1,0.3-2.5-0.5-3.4c0,0-4.4-2.2-6.4-2.8c-1.4-0.3-2.9-0.1-4.2,0.5c-1.4,0.6-2.8,1-4.3,1.4
			c-1.5,0.2-3-0.2-4.3-1l3.6-1.3c2.5,1,5.5-3.9,12.9-2.3s8.5,6.7,8.5,6.7l1.6-2.7l-0.6-3.2c-1.8-0.8-3.6-1.3-5.5-1.8
			c-2.6-0.5-3.2-3.9-3.2-3.9l-0.7-2l3,1.5c0.4,4.4,5.8,1.2,9.3,4.3s-0.5,9.5-0.5,9.5c7-2.1,13.4-3.2,18.6,3c0.5-1.7,1.2-3.3,2-4.9
			c0.9-1.4,2.4-2.4,3.2-3.8c1.2-2.2,2.1-4.6,3.2-7.1c-6.3-4.2-13.1-5-20.4-3.9c-1.6-4.9-5.1-7.9-9.7-9.7c-2-0.8-4-1.4-5.9-2.2
			c-1.4-0.6-2.8-1.1-4.2-1.7l0.3-0.8c4.6,1.2,9.2,2.2,13.7,3.7c1.9,0.8,3.6,2,4.9,3.6c4.2,4.8,9.3,6.3,16.2,3.9
			c-1.4-2.1-2.5-4.3-4.2-5.8s-4.2-2.2-6.8-3.4l5-0.8c1.8-0.3,2.8-1.3,2.6-3.2s-0.5-3.6-0.7-5.2l3.7,3c-1.8,2.3-2.1,5.5-0.8,8.2
			c1.1,2.4,1.9,4.9,2.9,7.3c0.1,0.3,0.4,0.6,0.7,0.8c1.6,0.8,3.3,1.5,5.2,2.4c0.8-6.7,1.6-13,2.4-19.8h-8L201.1,244.8z"/>
		<path class="st2" d="M77,293.7c-10.8-9.5-19.3-20.5-24-34.3c-1.5-4.4-2.6-8.8-4-13.5c-0.4,0.2-0.8,0.5-1.2,0.8
			c3.7,25.1,18.2,47.3,39.8,60.7c0.3,0.1,0.5,0.1,0.8,0.2c2.6,1.1,2.7,0.2,3.9,0.6c-1.7-1.7-3.2-3.7-4.9-5.3
			C84,299.7,80.5,296.7,77,293.7z"/>
		<path class="st2" d="M376.7,164.3c-1.7,20.5,6.4-39.4,6.4-39.4s-8.5-34.7-12.6-44.6C370.5,80.3,380.1,122.3,376.7,164.3z"/>
		<path class="st2" d="M77,293.7c-10.8-9.5-19.3-20.5-24-34.3c-1.5-4.4-2.6-8.8-4-13.5c-0.4,0.2-0.8,0.5-1.2,0.8
			c3.7,25.1,18.2,47.3,39.8,60.7c0.3,0.1,0.5,0.1,0.8,0.2c2.6,1.1,2.7,0.2,3.9,0.6c-1.7-1.7-3.2-3.7-4.9-5.3
			C84,299.7,80.5,296.7,77,293.7z"/>
		<path class="st2" d="M201.1,244.8l7.3-1.5c-0.2-1-0.4-1.9-0.6-2.7c-0.5-1.3-1.3-2.4-2.4-3.2c-0.8-0.6-1.7-1.1-2.7-1.5l-0.6-0.3
			c-2.1-0.6-4.3-0.1-5.9,1.3c-3.8,3.7-8.3,6.1-13,8.3c-6.9,3.2-5,3.4-10.7-1.4c-2.9-2.8-7.1-3.8-11-2.8c-4.1,0.9-8.3,1.7-12.4,2.4
			c-1.7,0.3-3.4,0.3-4.2-1.4c2.6-0.4,5.1-0.7,7.6-1.3s4.9-1.5,7.4-2.1c5.1-1.3,9.8-1.2,14.1,2.6c1.6,1.2,3.6,1.9,5.6,1.7
			c3.9-0.3,7.6-1.5,10.5-4.5c2.4-2.5,4.6-4.6,7.7-5.3c0,0-2.7-1.6-2.7-1.7c-2,1.2-3.9,2.5-5.9,3.6c-2.6,1.5-5.4,2.8-8.2,3.8
			c-4.1,1.3-7-0.7-7.9-4.9c-0.2-0.8-0.3-1.5-0.4-2.3c-0.6-3.9-1.2-7.7-1.9-11.6c-0.3-1.8-1.2-3.4-3.3-3.4c-6.4,0-10.4,1.9-11,7.9
			c0,0.2-0.2,0.5-0.6,1.2c-1.4-8.7,5.7-9.9,10.6-13.1l-14.3-6.5c7.4,0.2,14.4,3.5,19.3,9.1c0.9,1.2,1.5,2.5,1.8,4
			c0.9,4.4,1.5,8.8,2.4,13.1c0.6,3,3.2,4.9,5.6,3.7c4.1-2,8.2-4.3,12.4-6.7c-2.9-2-5.8-4.1-8.5-6.3c-0.1,0.2-0.2,0.4-0.3,0.6l0,0
			v0.1l0,0l0,0c-1.8,3.5-2.9,4-5.1,2.6c0.2-0.2,0.4-0.5,0.6-0.7c1.1-1,1.9-2.2,2.6-3.5l0,0l-4.6-7.1c-3.7-2.4-6.3-5.9-8.9-9.2
			c-2.2-2.8-4.5-5.6-6.8-8.4c-0.5-0.9-1.6-1.4-2.6-1.2L160,196c-0.4,0.1-0.8,0.3-1.1,0.6c-1.8,1.3-3.5,2.8-5.4,4.2
			c-0.9,0.6-1.9,1.1-2.8,1.7l-0.4-0.6l6.5-7.2l-5.2-2.4c-3,2.8-4.2,7-8,8.7l-0.6-0.5l6.6-9.2l-6.3-3.4l0.2-0.5l11.6,4.2
			c1,0,0.3-3.5-0.9-5.4c-1.4-2.7-2.8-5.5-4-8.4c-1.1-2.8-0.6-3.2-1.8-4.4c-0.4-0.4-0.9-0.8-1.3-1.3c-1.3-1.6-3-0.5-4.5,0.2
			c-0.8,0.3-1.6,0.6-2.4,0.9c-4.6,1.3-7.8,5.6-7.6,10.5c0.1,1.5,0.1,3.1,0.1,4.6c0,1.9-0.2,3.8-0.3,5.7h-0.6
			c-0.5-6.6-3.7-13.3,1.6-19.4c-4.9-3.7-11.5-4.1-16.8-0.9c-1.6,1.2-3.2,2.5-4.7,3.8c-4.6,4.2-10.8,6.3-17,6c0.3-0.3,0.6-0.5,1-0.6
			c6.6-1.1,11.7-4.6,16.7-9.1c4.8-4.4,11-7.1,18-3.8c5.4,2.6,10,1,15.1-2.4c-2.1,0.1-3.8-0.1-5.2,0.4c-3.6,1.2-6.7,0.4-9.8-1.4
			c-1-0.6-2.1-1.1-3.2-1.3c-2.8-0.6-3.4-1.2-3.6-4.4c11.9,6.5,15,6.6,20.2,0.1c-0.8-0.5-1.5-1.4-2.3-1.5c-6.7-1-13.3-2.8-20.2-1.7
			c-3.8,0.6-7.6,0.8-11.3,1.6c-1.7,0.4-3.2,1.4-4.3,2.8c-1.1,1.8-1.9,3.7-2.3,5.8c-1.4,4.7-5.6,7.8-10.2,7c2.1-1.4,4.1-2.7,5.9-4
			c0.4-0.3,0.5-0.9,0.8-1.4c-0.5-0.1-1-0.1-1.4-0.1c-1.6,0.5-3.2,1.1-4.8,1.7l-0.3-0.6c1.8-1.1,3.6-2.3,5.5-3.2
			c2.4-1.1,2.6-3.4,3.4-5.7c-8.8,2.7-16.8,7.2-23.7,13.4l6.1,4.4l-0.4,0.9l-3-0.9l0.9,4.6l-0.6,0.2l-5-7.4
			c-7.1,6.3-12.8,13.9-17,22.4c-4.5,9.1-6.4,18.7-6.7,28.9c-0.3,12.1,1.2,23.8,6,35c6.2,14.4,16.9,25.1,28.5,35.2
			c6.3,5.5,14.1,8,21.8,10.6c4.4,1.4,9,2.4,13.6,3c3.7,0.5,11.3,1,15.3,1c0.2-0.5-0.2-3.5-3.1-3c-4-0.3-4.2-2.6-6.3-4
			c2.3,0.5,4.5,2.4,6.8,1.6c0-0.9,0.2-1.3-1.9-3.8c1.5,1.1,5.2,3,6.1,4.3c2.3,3.2,2.9,4.5,6.6,3.6c4.3-1,8.1-3,12.5-4
			c2.7-0.6,5.5-1.3,8.5-2.1l-4.5-4.1c-1.1,0.6-2.1,1.2-3.1,1.8c-4.3,2.2-5.3,2-8.2-1.9c-0.2-0.2-0.4-0.5-0.5-0.8
			c-1.7-3.4-4.4-3.8-7.9-3.2c-3,0.4-6,0.6-9.1,0.4c-1.4-0.1-2.7-1-4.1-1.5l0.2-0.8h10.2L139,289l0.7-0.2c0.6,1.4,1.3,2.7,1.8,4.1
			c0.4,1.5,1.9,2.5,3.4,2.4c1.6-0.1,3.1,0,4.6,0.5c0.3,0.1,0.5,0.2,0.8,0.2c3.8,1.3,4.2,3.5,4.2,3.5l0,0c-0.1,0.8,0.5,1.5,1.3,1.5
			c0.3,0,0.5,0,0.7-0.1c0.8-0.3,1.6-0.7,2.3-1.1l0,0c7.4-5.4,9.8-0.9,9.8-0.9l0,0c0.4,1,1.1,1.9,1.9,2.5c1.7,1.5,3.4,1.1,4.9,0
			c6-4.5,12-9,18.1-13.6c-0.9-1.9-2.6-3.4-4.7-4.1c-1.8-0.5-4.6,1-4.6,1s-6,2-6.9,1.1s-5.4,0.3-6.6,0.9s-4.5,1.6-5.2,1.9
			s-2.9-0.4-4.5-1.6c-0.9-0.7-2.2-0.8-3.2-0.3c-0.4,0.5-0.8,1.1-1,1.7c-0.3,0.9-4.6,0.8-4.6,0.8s3.4-1.9,4-3.9s4.9-0.7,7.6-0.3
			s3.5-0.9,4.5-2.6c0.5-1.1,0.3-2.5-0.5-3.4c0,0-4.4-2.2-6.4-2.8c-1.4-0.3-2.9-0.1-4.2,0.5c-1.4,0.6-2.8,1-4.3,1.4
			c-1.5,0.2-3-0.2-4.3-1l3.6-1.3c2.5,1,5.5-3.9,12.9-2.3s8.5,6.7,8.5,6.7l1.6-2.7l-0.6-3.2c-1.8-0.8-3.6-1.3-5.5-1.8
			c-2.6-0.5-3.2-3.9-3.2-3.9l-0.7-2l3,1.5c0.4,4.4,5.8,1.2,9.3,4.3s-0.5,9.5-0.5,9.5c7-2.1,13.4-3.2,18.6,3c0.5-1.7,1.2-3.3,2-4.9
			c0.9-1.4,2.4-2.4,3.2-3.8c1.2-2.2,2.1-4.6,3.2-7.1c-6.3-4.2-13.1-5-20.4-3.9c-1.6-4.9-5.1-7.9-9.7-9.7c-2-0.8-4-1.4-5.9-2.2
			c-1.4-0.6-2.8-1.1-4.2-1.7l0.3-0.8c4.6,1.2,9.2,2.2,13.7,3.7c1.9,0.8,3.6,2,4.9,3.6c4.2,4.8,9.3,6.3,16.2,3.9
			c-1.4-2.1-2.5-4.3-4.2-5.8s-4.2-2.2-6.8-3.4l5-0.8c1.8-0.3,2.8-1.3,2.6-3.2s-0.5-3.6-0.7-5.2l3.7,3c-1.8,2.3-2.1,5.5-0.8,8.2
			c1.1,2.4,1.9,4.9,2.9,7.3c0.1,0.3,0.4,0.6,0.7,0.8c1.6,0.8,3.3,1.5,5.2,2.4c0.8-6.7,1.6-13,2.4-19.8h-8L201.1,244.8z"/>
		<path class="st2" d="M376.7,164.3c-1.7,20.5,6.4-39.4,6.4-39.4s-8.5-34.7-12.6-44.6C370.5,80.3,380.1,122.3,376.7,164.3z"/>
		<path class="st2" d="M201.1,244.8l7.3-1.5c-0.2-1-0.4-1.9-0.6-2.7c-0.5-1.3-1.3-2.4-2.4-3.2c-0.8-0.6-1.7-1.1-2.7-1.5l-0.6-0.3
			c-2.1-0.6-4.3-0.1-5.9,1.3c-3.8,3.7-8.3,6.1-13,8.3c-6.9,3.2-5,3.4-10.7-1.4c-2.9-2.8-7.1-3.8-11-2.8c-4.1,0.9-8.3,1.7-12.4,2.4
			c-1.7,0.3-3.4,0.3-4.2-1.4c2.6-0.4,5.1-0.7,7.6-1.3s4.9-1.5,7.4-2.1c5.1-1.3,9.8-1.2,14.1,2.6c1.6,1.2,3.6,1.9,5.6,1.7
			c3.9-0.3,7.6-1.5,10.5-4.5c2.4-2.5,4.6-4.6,7.7-5.3c0,0-2.7-1.6-2.7-1.7c-2,1.2-3.9,2.5-5.9,3.6c-2.6,1.5-5.4,2.8-8.2,3.8
			c-4.1,1.3-7-0.7-7.9-4.9c-0.2-0.8-0.3-1.5-0.4-2.3c-0.6-3.9-1.2-7.7-1.9-11.6c-0.3-1.8-1.2-3.4-3.3-3.4c-6.4,0-10.4,1.9-11,7.9
			c0,0.2-0.2,0.5-0.6,1.2c-1.4-8.7,5.7-9.9,10.6-13.1l-14.3-6.5c7.4,0.2,14.4,3.5,19.3,9.1c0.9,1.2,1.5,2.5,1.8,4
			c0.9,4.4,1.5,8.8,2.4,13.1c0.6,3,3.2,4.9,5.6,3.7c4.1-2,8.2-4.3,12.4-6.7c-2.9-2-5.8-4.1-8.5-6.3c-0.1,0.2-0.2,0.4-0.3,0.6l0,0
			v0.1l0,0l0,0c-1.8,3.5-2.9,4-5.1,2.6c0.2-0.2,0.4-0.5,0.6-0.7c1.1-1,1.9-2.2,2.6-3.5l0,0l-4.6-7.1c-3.7-2.4-6.3-5.9-8.9-9.2
			c-2.2-2.8-4.5-5.6-6.8-8.4c-0.5-0.9-1.6-1.4-2.6-1.2L160,196c-0.4,0.1-0.8,0.3-1.1,0.6c-1.8,1.3-3.5,2.8-5.4,4.2
			c-0.9,0.6-1.9,1.1-2.8,1.7l-0.4-0.6l6.5-7.2l-5.2-2.4c-3,2.8-4.2,7-8,8.7l-0.6-0.5l6.6-9.2l-6.3-3.4l0.2-0.5l11.6,4.2
			c1,0,0.3-3.5-0.9-5.4c-1.4-2.7-2.8-5.5-4-8.4c-1.1-2.8-0.6-3.2-1.8-4.4c-0.4-0.4-0.9-0.8-1.3-1.3c-1.3-1.6-3-0.5-4.5,0.2
			c-0.8,0.3-1.6,0.6-2.4,0.9c-4.6,1.3-7.8,5.6-7.6,10.5c0.1,1.5,0.1,3.1,0.1,4.6c0,1.9-0.2,3.8-0.3,5.7h-0.6
			c-0.5-6.6-3.7-13.3,1.6-19.4c-4.9-3.7-11.5-4.1-16.8-0.9c-1.6,1.2-3.2,2.5-4.7,3.8c-4.6,4.2-10.8,6.3-17,6c0.3-0.3,0.6-0.5,1-0.6
			c6.6-1.1,11.7-4.6,16.7-9.1c4.8-4.4,11-7.1,18-3.8c5.4,2.6,10,1,15.1-2.4c-2.1,0.1-3.8-0.1-5.2,0.4c-3.6,1.2-6.7,0.4-9.8-1.4
			c-1-0.6-2.1-1.1-3.2-1.3c-2.8-0.6-3.4-1.2-3.6-4.4c11.9,6.5,15,6.6,20.2,0.1c-0.8-0.5-1.5-1.4-2.3-1.5c-6.7-1-13.3-2.8-20.2-1.7
			c-3.8,0.6-7.6,0.8-11.3,1.6c-1.7,0.4-3.2,1.4-4.3,2.8c-1.1,1.8-1.9,3.7-2.3,5.8c-1.4,4.7-5.6,7.8-10.2,7c2.1-1.4,4.1-2.7,5.9-4
			c0.4-0.3,0.5-0.9,0.8-1.4c-0.5-0.1-1-0.1-1.4-0.1c-1.6,0.5-3.2,1.1-4.8,1.7l-0.3-0.6c1.8-1.1,3.6-2.3,5.5-3.2
			c2.4-1.1,2.6-3.4,3.4-5.7c-8.8,2.7-16.8,7.2-23.7,13.4l6.1,4.4l-0.4,0.9l-3-0.9l0.9,4.6l-0.6,0.2l-5-7.4
			c-7.1,6.3-12.8,13.9-17,22.4c-4.5,9.1-6.4,18.7-6.7,28.9c-0.3,12.1,1.2,23.8,6,35c6.2,14.4,16.9,25.1,28.5,35.2
			c6.3,5.5,14.1,8,21.8,10.6c4.4,1.4,9,2.4,13.6,3c3.7,0.5,11.3,1,15.3,1c0.2-0.5-0.2-3.5-3.1-3c-4-0.3-4.2-2.6-6.3-4
			c2.3,0.5,4.5,2.4,6.8,1.6c0-0.9,0.2-1.3-1.9-3.8c1.5,1.1,5.2,3,6.1,4.3c2.3,3.2,2.9,4.5,6.6,3.6c4.3-1,8.1-3,12.5-4
			c2.7-0.6,5.5-1.3,8.5-2.1l-4.5-4.1c-1.1,0.6-2.1,1.2-3.1,1.8c-4.3,2.2-5.3,2-8.2-1.9c-0.2-0.2-0.4-0.5-0.5-0.8
			c-1.7-3.4-4.4-3.8-7.9-3.2c-3,0.4-6,0.6-9.1,0.4c-1.4-0.1-2.7-1-4.1-1.5l0.2-0.8h10.2L139,289l0.7-0.2c0.6,1.4,1.3,2.7,1.8,4.1
			c0.4,1.5,1.9,2.5,3.4,2.4c1.6-0.1,3.1,0,4.6,0.5c0.3,0.1,0.5,0.2,0.8,0.2c3.8,1.3,4.2,3.5,4.2,3.5l0,0c-0.1,0.8,0.5,1.5,1.3,1.5
			c0.3,0,0.5,0,0.7-0.1c0.8-0.3,1.6-0.7,2.3-1.1l0,0c7.4-5.4,9.8-0.9,9.8-0.9l0,0c0.4,1,1.1,1.9,1.9,2.5c1.7,1.5,3.4,1.1,4.9,0
			c6-4.5,12-9,18.1-13.6c-0.9-1.9-2.6-3.4-4.7-4.1c-1.8-0.5-4.6,1-4.6,1s-6,2-6.9,1.1s-5.4,0.3-6.6,0.9s-4.5,1.6-5.2,1.9
			s-2.9-0.4-4.5-1.6c-0.9-0.7-2.2-0.8-3.2-0.3c-0.4,0.5-0.8,1.1-1,1.7c-0.3,0.9-4.6,0.8-4.6,0.8s3.4-1.9,4-3.9s4.9-0.7,7.6-0.3
			s3.5-0.9,4.5-2.6c0.5-1.1,0.3-2.5-0.5-3.4c0,0-4.4-2.2-6.4-2.8c-1.4-0.3-2.9-0.1-4.2,0.5c-1.4,0.6-2.8,1-4.3,1.4
			c-1.5,0.2-3-0.2-4.3-1l3.6-1.3c2.5,1,5.5-3.9,12.9-2.3s8.5,6.7,8.5,6.7l1.6-2.7l-0.6-3.2c-1.8-0.8-3.6-1.3-5.5-1.8
			c-2.6-0.5-3.2-3.9-3.2-3.9l-0.7-2l3,1.5c0.4,4.4,5.8,1.2,9.3,4.3s-0.5,9.5-0.5,9.5c7-2.1,13.4-3.2,18.6,3c0.5-1.7,1.2-3.3,2-4.9
			c0.9-1.4,2.4-2.4,3.2-3.8c1.2-2.2,2.1-4.6,3.2-7.1c-6.3-4.2-13.1-5-20.4-3.9c-1.6-4.9-5.1-7.9-9.7-9.7c-2-0.8-4-1.4-5.9-2.2
			c-1.4-0.6-2.8-1.1-4.2-1.7l0.3-0.8c4.6,1.2,9.2,2.2,13.7,3.7c1.9,0.8,3.6,2,4.9,3.6c4.2,4.8,9.3,6.3,16.2,3.9
			c-1.4-2.1-2.5-4.3-4.2-5.8s-4.2-2.2-6.8-3.4l5-0.8c1.8-0.3,2.8-1.3,2.6-3.2s-0.5-3.6-0.7-5.2l3.7,3c-1.8,2.3-2.1,5.5-0.8,8.2
			c1.1,2.4,1.9,4.9,2.9,7.3c0.1,0.3,0.4,0.6,0.7,0.8c1.6,0.8,3.3,1.5,5.2,2.4c0.8-6.7,1.6-13,2.4-19.8h-8L201.1,244.8z"/>
		<path class="st2" d="M77,293.7c-10.8-9.5-19.3-20.5-24-34.3c-1.5-4.4-2.6-8.8-4-13.5c-0.4,0.2-0.8,0.5-1.2,0.8
			c3.7,25.1,18.2,47.3,39.8,60.7c0.3,0.1,0.5,0.1,0.8,0.2c2.6,1.1,2.7,0.2,3.9,0.6c-1.7-1.7-3.2-3.7-4.9-5.3
			C84,299.7,80.5,296.7,77,293.7z"/>
		<path class="st2" d="M376.7,164.3c-1.7,20.5,6.4-39.4,6.4-39.4s-8.5-34.7-12.6-44.6C370.5,80.3,380.1,122.3,376.7,164.3z"/>
		<path class="st1" d="M139.9,83.2c1.1-4.3,1.5-8.8,1.1-13.2c0,0.2,0,0.3,0,0.5V70c0-4-0.4-8-1.1-12c-0.3-3.1-0.9-6.2-1.7-9.2
			c-3-10.5-8.9-20-17-27.3C94.1-6.4,49.4-7.1,21.5,20S-7.1,91.8,20,119.7s71.7,28.6,99.7,1.5C130.2,111,137.3,97.7,139.9,83.2
			 M33.8,33.7c1.4,2,2.5,4.2,4.3,5.8c2.3,2,5.8,0.8,7.3-2.3c1-2.2,1.7-4.5,2.7-6.9c2.2,2.2,4.7,3.2,7.5,2.1
			c-1.7-1.1-3.3-2.1-4.9-3.3s-1.5-2.6-0.2-3.5c1.8-1.3,3.7-2.4,5.8-3.2c1.8-0.5,3.6-0.9,5.4-1.1l0.1-0.8c-1.6-0.5-3.3-0.7-4.9-0.8
			c-5,0.3-8.7,2.7-10.6,7.5c-1.1,2.8-1.9,5.8-3,8.6c-1,2.4-3,2.9-4.9,1.4c-1-0.6-1.3-2-0.6-3c0,0,0,0,0-0.1c0.4-0.9,0.6-2,0.5-3
			c-0.4-4.2,0.4-8.3,2.4-12c0.6-1.1,2.5-1.6,3.8-2.3c1.1-0.5,2.2-1,3.3-1.4c2.5-1.1,5.1-2.1,7.8-3C66,9.5,76.9,9.3,87.3,12
			c10.8,2.8,19.8,8.5,26.2,17.8c5.8,8.4,10.6,17.4,13.4,27.2c6.3,22.2,0.7,41.1-16.5,56.5c-8.2,7.4-17.2,13.1-28.3,15.1l-1.3,0.2
			c-0.9-2.3-0.3-3.7,1.8-3.6c3.9,0.1,6.3-1.8,8-5c0.7-0.9,1.3-1.9,1.7-2.9c-1,0.9-2.1,1.7-3,2.6c-1.8,1.8-4.2,2.8-6.7,2.8
			c-1.2,0-2.6,1.1-3.6,2.1s-1.5,2.5-2.8,3.6c0.4-2.8,0.9-5.5,1.4-8.2s0.9-5.7,1.5-8.5s1.3-5.5,1.7-8.5L74.6,114
			c-0.7-4.2-1.2-7.8-1.8-11.5l-0.7-0.2c-0.6,1-1,2-1.3,3.1c-0.6,3.2,0,6.5,1.7,9.3c2.7,4.7,2.1,9.2-1,13.3c-0.8,1.1-2.1,1.8-3.4,2
			c-2.8,0.2-5.7,0.2-8.5,0.1l5.2-9.2l-4.4,1.8c-0.6-2.4-1.1-4.7-1.8-7.5c-0.8,2.1-1.4,4.2-2,6.4c-0.1,0.6,0.8,1.4,1.1,2.2
			c0.3,1.2,0.5,2.4,0.8,3.6c-1.2,0.2-2.4,0.9-3.4,0.6c-3.1-0.8-6.2-2-9.5-3.2c1.9-4.1,3.4-8,5.5-11.5c0.8-1.3,3.1-1.6,4.8-2.3
			s3.6-1.5,5.3-2.2c-0.1-0.3-0.2-0.5-0.3-0.8H58c2.1-3.6,4-7,6-10.3l-0.6-0.4c-0.6,0.7-1.1,1.3-1.7,2c-1.8,2.2-3.7,4.5-5.4,6.8
			c-1.2,1.5-2.7,2.7-4.6,3.3c-1.6,0.6-2.9,2.4-3.9,4c-0.9,1.7-1.7,3.4-2.2,5.3c-2.8-7.3,0.6-12.4,4.7-17.4l-0.4-0.6
			c-0.9,0.4-1.8,0.9-2.6,1.5c-3.5,3.3-5.4,7.8-5.3,12.6c0,1.6-0.2,3.2-0.7,4.8c-0.6,1.7-2,2-3.3,0.7c-2.9-3-6.9-5-8.8-9
			c-0.2-0.3-0.5-0.6-0.8-0.7c-3-0.8-3-0.8-5-3.5l3.5-1.6c-0.2-0.5-0.5-1-0.7-1.5l0.5-0.6l8.1,5l0.4-0.2l-3.2-5l2.9-2.1l-0.4-0.8
			l-14.9,3.2c-0.4-1.9-0.7-3.7-1-5.8c4.2,0.1,8.2-1.4,11.2-4.2c2.2-2.2,4.2-4.5,6.1-7c0.4-0.6,0.8-1.2,1.1-1.8
			c3.4-5.8,5.4-6.1,10.9-2.2c2,1.3,4.3,2.2,6.6,2.9c2,0.7,3.7,1.5,4.8,3.4s3,1.9,4.8,1.4c2.9-0.9,5.6-2.1,8.5-3.2
			c-0.1-0.2-0.2-0.5-0.3-0.7c-1.6,0.6-3.1,1.3-4.7,1.8c-3.3,1.2-5.1,0.7-7.1-2.3l9.6-8l-0.3-0.5c-2.6,1.1-5.2,2.4-7.6,3.8
			C58,83.6,54.5,83,51,80.6c-7.5-5.2-13.8-3.9-19,3.8c-1.7,2.5-3.6,4.9-5.6,7.2c-0.7,0.6-1.5,1-2.4,1c2.1-2.7,4.5-5.2,6.1-8.1
			c1.5-2.9,2.7-6,3.4-9.2c1-3.9,3-6.6,6.6-8.2c3-1.3,6-2.7,8.9-4.1c0.7-0.3,1.3-0.7,1.9-1.1c-5.9,0.3-11.6,1.5-15.8,5.9
			c-1.8,2-3,4.7-4.2,7.1c-1.8,3.6-3.1,7.5-5,11c-2.3,3.9-7.3,5.3-11.3,3c-0.1-0.1-0.3-0.2-0.4-0.3c-1.7-1.2-2.4-3.6-3.5-5.8
			c6.4,2.2,7.9-3.6,11.2-6.2c0.2-0.1,0-1.1-0.1-1.2c-0.5-0.2-1-0.1-1.5,0.1c-1.4,0.9-2.7,2-4.5,3.3c0.2-1.7,0.3-2.8,0.4-3.8
			c-1.8,0.1-1.8,0.1-2.5,4.6c-3.7-0.7-5-4.8-3.6-11.7c5.8,1.4,9.6-1.8,12.9-6c3.8-5,9.4-8.2,15.7-8.8c0.8-0.1,1.5-0.3,2.2-0.7
			c-7.2-2.1-12.8,1.4-18.4,6c0.8-4.1,1.5-7.8,2.3-11.4l-0.6-0.3c-0.8,1.5-1.6,3-2.3,4.7c-1.1,2.8-2,5.7-3,8.6
			c-0.5,1.6-1.4,2.5-3.3,1.9c-3.4-1.2-4.6-2.4-4-4.5c1.1-3.7,2.2-7.3,3.5-11.2l5.6,1.5l0.4-0.6l-4.2-3.3l5.1-6.9
			c1.8-2.5,3.6-4.9,5.5-7.3c0.6-0.5,1.2-1,1.9-1.3c0.4,0.6,0.7,1.3,0.9,2c0.5,2.9,0.9,5.9,1.5,8.8c1.1,5.8,8.5,8.8,13.4,5.5
			c3.1-2.2,7-2.5,10.5-1c1,0.4,2.1,0.7,3.1,1l0.3-0.6c-1.1-0.7-2.2-1.3-3.2-2.1c-3.4-2.7-6.6-3.1-10.3-0.2C41.9,44,35.9,42,34,37.8
			c-0.4-0.8-0.8-1.7-1-2.6C32.9,34.7,33.5,34.2,33.8,33.7z M10.6,62.2l5.8,2.2C12.5,66.4,10.7,65.7,10.6,62.2z M135.8,76.4l-0.2,0.6
			H135c0-4.1,0.4-8.2-0.1-12.3c-1.3-11-6.4-20.6-12.1-29.9c-2.3-3.7-4.7-7.3-7-11l0.3-0.4c12.8,12.3,20,29.3,20,47.1
			C136.1,72.5,136,74.4,135.8,76.4z"/>
		<path class="st1" d="M145.4,247.6c-2.6-12.5-6.5-24.4-14.6-34.6c-7-8.7-15.7-14.4-27.2-15c-8.3-0.4-16.1,1-22.2,7.2
			c-7.6,7.8-9.6,17.4-9.2,27.8c-0.2,1.9-0.3,3.9-0.3,5.8c0.1,2,0.4,4,0.9,6c4.5,20.4,16.2,35.7,34,46.1c15.2,8.9,34.4,0.1,38.7-17
			C147.7,265.2,147.2,256.4,145.4,247.6z M124,256.4c0-0.3,0-0.6-0.1-0.9l8.9-2.7l0.3,0.9l-1.9,1.3l1.9,1.5l-0.2,0.8L124,256.4z
			 M131.5,260.6c-5.9-0.3-9.3-1.5-9.2-3.2C125.4,258.3,129.1,257,131.5,260.6L131.5,260.6z M122.5,252.2c-0.5-0.1-0.8-0.8-1.2-1.3
			c0.1-0.2,0.3-0.5,0.4-0.7c1.8,0.1,3.6,0.1,5.3-0.1c1.7-0.3,3.4-0.9,5-1.6c1.6-0.7,2.6-0.5,2.6,1.6
			C131,252.3,126.7,253,122.5,252.2L122.5,252.2z M122,263.5h8.5c-1,2.6-2,5.2-3.1,8.1c-2.5-2.2-6.1-2.6-7.1-6.5l5,1.3l0.2-0.3
			L122,263.5z M131.2,264.3l5.6,2.1l-0.1,0.5l-7.1,1.3C130.3,266.7,130.7,265.6,131.2,264.3L131.2,264.3z M128.3,236.2
			c1.9,0,3.7-0.1,5.6,0.1c0.7,0.1,1.4,0.7,2.1,1.1c-0.5,0.6-1.2,1.2-1.9,1.6c-1.5,0.6-3,1.3-4.3,2.2h2.3l-0.9,1.6l2.8,1.5l0.2,0.7
			l-5.1,1.6l2.4,2.3c-3,0.1-5.9,0.1-8.9-0.1c-0.9-0.1-1.7-1.6-2.8-2.8l8-1.8v-0.3l-3.6-0.6l3-2.1c-8,1.1-8,1.1-10.8-4.8l9.9-5.3
			l-0.2-0.5l-8.4,3.1c-0.1-0.3-0.2-0.5-0.4-0.8l7.4-4.6c2.5,2.3,7.2-0.3,8.7,4.3l-5.1,3V236.2z M128.6,225.8l4.1-0.4
			c0.1,0.3,0.1,0.6,0.1,0.8l-7.3,1.5c-0.1-1.1-0.2-2.1-0.3-3.1c-1.6,4.1-6,4.7-9,6.9c-2.7,2-3.2,1.6-5.6-1.3c5-2.4,9.8-4.8,14.7-7
			C127.5,222.3,128.4,223.7,128.6,225.8L128.6,225.8z M111.3,220.3c-1.6,2.7-3.2,5.3-4.8,8l-0.6-0.3c1.5-3.4,3-6.7,4.6-10.5l4,3.5
			l-3.7,3.4l-0.5-0.4l1.7-3.3L111.3,220.3z M116.6,225.1c-2.3,1.5-4.4,3-6.8,4.5C111.3,225.3,113.5,223.8,116.6,225.1L116.6,225.1z
			 M117.3,219.4c2.3,0.1,3.3,1.5,3.9,3.5C117.7,223.2,117,222.6,117.3,219.4L117.3,219.4z M121.4,214.8c-0.7,1.9-2.6,0.7-3.7,1.4
			c-1.1,0.9-2.2,1.9-3.1,3l-3.9-2.8C114.4,212.8,116.8,212.4,121.4,214.8L121.4,214.8z M109.1,209.9c0.4,1.4,0.7,2.6,1.1,4.2
			c0.6-1.2,0.9-2,1.3-2.8l0.8,0.2c-0.3,1.1-0.7,2.2-1.2,3.2c-0.9,1.2-2.5,0.8-6.5-1.5L109.1,209.9z M104.2,215.1l4.3,1.5
			c-0.7,4-4,10.6-5.6,11C103.2,223.5,103.7,219.4,104.2,215.1L104.2,215.1z M104.2,259.1c-4.1,4-7.2,5.1-9.8,3.5L104.2,259.1z
			 M99.2,226.4c-2.1-0.2-2.8-1.2-2.7-4.9l4.9,1.6C101.4,225,101.6,226.6,99.2,226.4L99.2,226.4z M99.5,208.2l1.1,0.4
			c0.1,1.4,0.3,2.7,0.4,4.1c0,2.3,0.6,7.4-1.6,7.7c-0.5,0-3.4-4.5-3.4-4.6C97,213.2,98.2,210.7,99.5,208.2L99.5,208.2z M92.4,208.3
			c-0.1,2-0.3,3.7-0.4,5.9c1.7-1.9,1.4-4.4,3.5-5.6c-1.5,6.1-1.4,12.4,0.3,18.4l-0.5,0.5c-0.5-0.4-1.3-0.7-1.5-1.1
			c-1.8-5.3-3.5-10.7-5.2-16.2L92.4,208.3z M94.9,250.7l-6.5,4.2c-0.8-1.7-1.6-3.4-2.6-5.3L94.9,250.7z M84.8,209.1
			c-0.5,3.5-0.2,6.5,3,8.9l-0.5-4.6l0.4-0.1c1.5,4.8,3.1,9.7,4.7,14.6C86.1,227.1,80.3,213.1,84.8,209.1z M90.9,233.2
			c-2.5-1.9-6.4-3.8-5.3-7.6C88.8,226.6,91.9,230.5,90.9,233.2z M89,233.8c0.3,0.4,0.4,1,0.6,1.5c0.5,1,1.1,2.1,1.6,3
			c-4.1,0.6-8.3-1.3-10.3-5l6.6,1.6c-3.3-4.4-8.4-6.9-9.2-12.6C81.8,226.1,85.4,230,89,233.8L89,233.8z M82,231.3
			c-1.2,0.8-4.6,0-4.6,0l-1.3-4C76.2,227.3,83.2,230.5,82,231.3L82,231.3z M76.2,242.7c0.6,1.1,4.6,0.4,6.6,0
			c-2.2,0-6.2-2.3-6.2-2.3v-6.1c0,0,3.2,0.8,4.2,3s10.9,4.2,10.9,4.2s0.5,1,0,3.9s-13.4,1.4-13.4,1.4L76.2,242.7z M80.4,248.9
			c2.6-0.6,3.7-0.1,4.7,2.7l-5.9,0.7C78.9,250.7,78.4,249.4,80.4,248.9L80.4,248.9z M88.4,263.6c1.3-1.2,2.5-2.5,3.7-3.8
			c-0.1-0.3-0.3-0.6-0.4-0.9l-7.1,2c2.1-3.8,4-4.5,7.6-3.9c1,0,2-0.1,2.9-0.5c1.9-0.6,3.9-1.2,5.8-1.6c-5.2,3.2-9.4,7.2-12.1,12.7
			C86.4,265.8,86.4,265.4,88.4,263.6z M93.8,271.5c-3.1-1.8-3-2.6,0.9-7.1l3.2,2.7L93.8,271.5z M103,275.2c0,1-0.8,1.8-1.7,1.8
			c-0.1,0-0.2,0-0.4,0l-2.5-2c0.2-0.9,0.5-1.7,0.9-2.5c0.6-1.1,6.6-9.6,6.6-9.6h1C106.9,262.8,103,273.1,103,275.2L103,275.2z
			 M110,280.2c-0.5-0.4,0.4-5.3,0.2-5.9c-0.3-1.2-0.5-2.4-0.6-3.6c0-0.4,0.3-0.7,0.5-1.1c0.3,0.2,0.9,0.4,1,0.7
			c0.7,2.8,0.8,8.3,1.2,10C112.1,280.4,110.2,280,110,280.2L110,280.2z M117.8,281.2c-1.3,0.5-3.1-1-3.1-1c-0.4-2.7-1.1-5.3-1.9-7.9
			c-0.5-1.4-0.6-3-0.5-4.5v-1.6c0-1.6,1.4,1.3,1.4,1.3c0.8,2,1.5,4.1,2,6.2c0.3,1.8,3.5,6.4,3.5,6.4S119,280.7,117.8,281.2
			L117.8,281.2z M123.7,278.4c-1.4-0.1-4.4-3.5-4.4-3.5l3,4.6l-1.9-1.2l-2-3.3l-3.2-8l3.5,5.5l4.4,4.5
			C122.9,276.9,125.1,278.5,123.7,278.4L123.7,278.4z M124.6,276.9c-0.6-2-6.2-6.5-6.7-10c-0.1-0.9,9.8,7.3,11.6,7.4
			C128.1,276.5,128.3,278.5,124.6,276.9L124.6,276.9z M128.8,272.4c0.9-2.6,3.4-2.6,8.7,0H128.8z"/>
	</g>
	<polygon class="st0" points="364.4,73.2 372.3,112.8 370.6,173.8 376.9,172.3 383.2,145.5 387.1,126.3 385.5,110 370.6,77 	"/>
</g>
<g id="Calque_2">
	<path class="st1" d="M385.7,103c-2.7-6.6-5.2-13.4-8-20c-4.5-10.4-10.9-20-18.8-28.1c-41-53.5-117.6-63.6-171.1-22.6
		c-13.4,10.3-24.5,23.2-32.7,38c-4.7,7.7-8.7,15.8-11.9,24.2c-5,12.7-7.7,25.7-6.1,39.4c0.3,2.4,0.5,4.8,0.7,7.2
		c-1.6-0.1-3.1-0.1-4.6-0.1c-51.6,0-93.3,41.9-93.3,93.5c0,4.7,0.4,9.4,1.1,14.1c2.6,23.3,14.6,42.9,31.6,56.6
		c39.1,33.5,97.9,29,131.3-10.1c0.4-0.5,0.8-0.9,1.2-1.4c1-1,2.1-2,3.1-3c8.6-8.4,13.4-19,16.6-30.5c1.2-4.4,2.4-8.9,3.7-13.4
		c32.2,9.2,66.8,4.7,95.7-12.3c11-6,21-13.8,29.5-23.1c10.7-11.5,18.4-25,26.3-38.3c4.6-7.6,7.7-16.1,9.2-24.9
		C391.9,132.8,391.7,117.7,385.7,103z M88.4,307.6c-0.3-0.1-0.5-0.2-0.8-0.2c-21.5-13.4-36-35.6-39.8-60.7c0.4-0.3,0.8-0.5,1.2-0.8
		c1.4,4.7,2.5,9.1,4,13.5c4.6,13.8,13.2,24.8,24,34.3c3.5,3,6.9,6,10.3,9.1c1.8,1.6,3.2,3.6,4.9,5.3C91,307.8,90.9,308.7,88.4,307.6
		z M206.8,265.4c-1.9-0.9-3.6-1.6-5.2-2.4c-0.3-0.2-0.6-0.5-0.7-0.8c-1-2.4-1.8-5-2.9-7.3c-1.4-2.6-1.1-5.8,0.8-8.2l-3.7-3
		c0.2,1.6,0.5,3.4,0.7,5.2c0.2,1.8-0.8,2.9-2.6,3.2l-5,0.8c2.6,1.3,5,2,6.8,3.4c1.8,1.4,2.8,3.7,4.2,5.8c-6.9,2.4-12,0.9-16.2-3.9
		c-1.3-1.5-3-2.7-4.9-3.5c-4.5-1.5-9.1-2.5-13.7-3.7l-0.3,0.8c1.4,0.6,2.8,1.2,4.2,1.7c2,0.8,3.9,1.5,5.9,2.2
		c4.7,1.8,8.2,4.8,9.7,9.7c7.3-1.1,14.1-0.3,20.4,3.9c-1.1,2.5-2,4.9-3.2,7.1c-0.8,1.4-2.3,2.4-3.2,3.8c-0.8,1.6-1.5,3.2-2,4.9
		c-5.2-6.2-11.6-5.1-18.6-3c0,0,4-6.5,0.5-9.5s-8.9,0.1-9.3-4.3l-3-1.5l0.7,2c0,0,0.7,3.5,3.2,3.9c1.9,0.4,3.7,1,5.5,1.8l0.6,3.2
		l-1.5,2.6c0,0-1.1-5.1-8.5-6.7c-7.4-1.6-10.3,3.3-12.9,2.3l-3.7,1.3c1.3,0.8,2.8,1.2,4.3,1c1.5-0.4,2.9-0.8,4.3-1.4
		c1.3-0.7,2.8-0.9,4.2-0.5c2,0.7,6.4,2.8,6.4,2.8c0.9,0.9,1.1,2.3,0.5,3.4c-1,1.8-1.8,3-4.5,2.6c-2.7-0.4-7.1-1.6-7.6,0.3
		c-0.5,1.9-4,3.9-4,3.9s4.3,0.1,4.6-0.8c0.2-0.6,0.6-1.2,1-1.7c1.1-0.5,2.3-0.3,3.2,0.3c1.6,1.1,3.8,1.9,4.5,1.6
		c0.7-0.3,4.1-1.2,5.2-1.9c1.1-0.7,5.7-1.8,6.6-0.9c0.9,0.9,6.9-1.1,6.9-1.1s2.8-1.6,4.6-1c2,0.7,3.7,2.1,4.7,4.1
		c-6.1,4.6-12.1,9.1-18.1,13.6c-1.6,1.2-3.2,1.5-4.9,0c-0.8-0.7-1.5-1.6-1.9-2.5c0,0-2.4-4.6-9.8,0.9c-0.7,0.5-1.5,0.9-2.3,1.1
		c-0.7,0.3-1.6,0-1.9-0.7c-0.1-0.2-0.2-0.5-0.1-0.7c0,0-0.4-2.2-4.2-3.5c-0.3-0.1-0.5-0.1-0.8-0.2c-1.5-0.4-3.1-0.6-4.6-0.5
		c-1.5,0.1-2.9-0.9-3.4-2.3c-0.5-1.4-1.2-2.7-1.8-4.1l-1,0l1.4,6.6h-10.2l-0.2,0.8c1.4,0.5,2.7,1.4,4.1,1.5c3,0.2,6.1,0.1,9.1-0.4
		c3.5-0.6,6.2-0.2,7.9,3.2c0.2,0.3,0.3,0.5,0.5,0.8c2.8,3.9,3.9,4.2,8.2,1.9c1-0.5,2-1.1,3.1-1.8l4.5,4.1c-3.1,0.8-5.8,1.5-8.5,2.1
		c-4.3,1-8.1,3-12.5,4c-3.7,0.8-4.3-0.4-6.6-3.6c-0.9-1.3-4.6-3.3-6.1-4.3c2.1,2.5,1.9,3,1.9,3.8c-2.3,0.8-4.6-1.1-6.8-1.6
		c2.1,1.3,2.3,3.6,6.3,4c2.9-0.5,3.2,2.5,3.1,3c-4,0-11.6-0.5-15.3-1c-4.6-0.6-9.2-1.6-13.6-3c-7.7-2.6-15.4-5.1-21.8-10.6
		c-11.6-10.1-22.3-20.8-28.4-35.2c-4.8-11.2-6.3-22.9-6-35c0.3-10.2,2.1-19.8,6.7-28.9c4.2-8.5,9.9-16.1,17-22.4l5,7.4l0.6-0.2
		l-0.9-4.6l3,0.9l0.4-0.9l-6.1-4.4c6.8-6.1,14.8-10.7,23.6-13.4c-0.8,2.3-1,4.6-3.4,5.7c-1.9,0.9-3.7,2.1-5.5,3.2l0.3,0.6
		c1.6-0.6,3.2-1.2,4.8-1.7c0.5-0.1,1,0,1.4,0.1c-0.2,0.5-0.4,1.1-0.8,1.4c-1.9,1.4-3.8,2.6-5.9,4c4.6,0.7,8.7-2.3,10.2-7
		c0.5-2,1.3-4,2.3-5.8c1.1-1.4,2.6-2.4,4.3-2.8c3.7-0.8,7.6-1.1,11.3-1.6c6.9-1,13.5,0.7,20.2,1.7c0.8,0.1,1.5,1,2.3,1.5
		c-5.1,6.5-8.2,6.4-20.2-0.1c0.2,3.2,0.8,3.8,3.6,4.4c1.1,0.3,2.2,0.7,3.2,1.3c3.1,1.8,6.2,2.6,9.8,1.4c1.4-0.5,3.1-0.2,5.2-0.4
		c-5.1,3.4-9.8,5-15.1,2.4c-6.9-3.4-13.1-0.6-18,3.8c-5,4.5-10.1,8-16.7,9.1c-0.4,0.1-0.7,0.3-1,0.6c6.2,0.3,12.4-1.8,17-6
		c1.5-1.4,3.1-2.6,4.7-3.8c5.2-3.2,11.9-2.9,16.8,0.9c-5.3,6.1-2.1,12.8-1.6,19.4h0.6c0.1-1.9,0.3-3.8,0.3-5.7
		c0-1.5-0.1-3.1-0.1-4.6c-0.1-4.8,3-9.1,7.7-10.4c0.8-0.2,1.6-0.5,2.4-0.9c1.5-0.7,3.2-1.8,4.5-0.2c0.4,0.5,0.8,0.9,1.3,1.3
		c1.2,1.1,0.7,1.6,1.8,4.4c1.2,2.9,2.6,5.6,4,8.4c1.2,1.9,1.9,5.4,0.9,5.4l-11.6-4.2l-0.2,0.5l6.3,3.4l-6.6,9.2l0.6,0.5
		c3.8-1.7,5-5.9,8-8.7l5.2,2.4l-6.5,7.2l0.4,0.6c0.9-0.6,1.9-1.1,2.8-1.7c1.8-1.4,3.5-2.9,5.4-4.2c0.4-0.3,0.7-0.4,1.1-0.6l0.1,0.2
		c1-0.2,2.1,0.3,2.6,1.2c2.2,2.8,4.5,5.6,6.8,8.4c2.7,3.4,5.3,6.9,8.9,9.2l4.6,7.1c-0.6,1.3-1.5,2.5-2.6,3.5
		c-0.2,0.2-0.4,0.5-0.6,0.7c2.2,1.4,3.3,1,5.1-2.6v-0.1c0.1-0.2,0.2-0.4,0.3-0.6c2.8,2.2,5.6,4.3,8.5,6.3c-4.2,2.3-8.2,4.6-12.4,6.7
		c-2.4,1.2-5.1-0.7-5.6-3.7c-0.8-4.4-1.5-8.8-2.4-13.1c-0.2-1.5-0.8-2.8-1.8-4c-4.9-5.6-11.9-8.9-19.3-9.1l14.3,6.5
		c-4.9,3.2-12,4.4-10.6,13.1c0.4-0.8,0.6-1,0.6-1.2c0.6-6,4.6-7.9,11-7.9c2.1,0,3,1.6,3.3,3.4c0.7,3.8,1.3,7.7,1.9,11.6
		c0.1,0.8,0.2,1.6,0.4,2.3c0.9,4.3,3.8,6.2,7.9,4.9c2.9-1,5.6-2.3,8.2-3.8c2-1.1,3.9-2.4,5.9-3.6c0,0,2.7,1.6,2.7,1.7
		c-3.1,0.7-5.3,2.8-7.7,5.3c-2.9,3-6.6,4.2-10.5,4.5c-2,0.1-4-0.5-5.6-1.7c-4.3-3.8-9-3.9-14.1-2.6c-2.5,0.6-4.9,1.5-7.4,2.1
		c-2.5,0.6-5,0.9-7.6,1.3c0.9,1.7,2.5,1.7,4.2,1.4c4.1-0.8,8.3-1.5,12.4-2.4c3.9-1.1,8.1,0,11,2.8c5.6,4.9,3.8,4.6,10.7,1.4
		c4.7-2.1,9.2-4.6,13-8.3c1.6-1.4,3.8-1.9,5.9-1.3l0.6,0.3c1,0.3,1.9,0.8,2.7,1.5c1.1,0.8,1.9,1.9,2.4,3.2c0.3,0.8,0.4,1.6,0.6,2.7
		L201,245l0.1,0.7h8C208.4,252.4,207.6,258.7,206.8,265.4z M370.3,136.9l-1.1,10l-1.5,8.2l-2.6,8.8l-2.1,6.6l-2.9,7.7l-3.2,7.3
		l-5.2,9.3l-5.4,7.9l-2.2,1.8l-7.4,7.8l-6,5.1l-4.2,3.1l-4.3,2.4l-6.8,4.2l-10.3,4.1l-9.3,2.2l-18.7,2.4l-11.9,0.4l-10.4-0.9
		l-13.8-2.5l-11.1-2.8l-11.2-3.9l-3.9-1.9l-15.6-7.4l-6-3.7l-4.1-3.7l-7.4-7.9l-4.3-5.7l-6.9-10.5l-5.5-9.6l-4-7.6l-4.3-11.5
		l-3.1-24l0.3-8.5l0.9-13.1l5.8-22.3l2.5-4.5l7.9-13.9L183,54l9.8-9.2l9.4-5.8l14.8-7.8l8.9-4.2l16.3-5.1l11.1-1.9l1-0.2l3,0h6.5
		l7,0.8l9.6,1.5l7.5,1.6l7.3,2l5.3,2l4.6,1.7l4.4,1.5l5.7,2.1l5.7,2.6l4.7,2.6l3.7,2.3l3.3,2.3l3.6,2.7l4.4,3.8l3.3,3.2l3.3,3.5
		l3.5,3.8l2,2.6l3.1,5.9l3.4,7.3l3.3,7.8l1.8,5l2,7.6l1.4,5.9l1.4,7.4l0.9,7.5l0.4,6.3l0,6.4L370.3,136.9z M376.7,164.3L376.7,164.3
		c3.5-42.1-6.1-84.1-6.1-84.1c4.1,10,12.6,44.6,12.6,44.6S375,184.8,376.7,164.3z"/>
</g>
<g id="Calque_3" class="st3">
	<rect class="st4" width="390.9" height="327.5"/>
</g>
</svg>
